<svg width="210" height="127" viewBox="0 0 210 127" fill="none" xmlns="http://www.w3.org/2000/svg">
<path d="M183.906 114.418C183.906 111.178 183.927 108.105 183.969 105.199C184.032 102.294 184.094 99.2625 184.157 96.106C186.143 96.106 187.638 96.0329 188.641 95.8865C189.644 95.7402 190.313 95.4998 190.648 95.1654C190.982 94.8309 191.139 94.3919 191.118 93.8484C191.097 93.3467 190.93 92.9495 190.617 92.6569C190.324 92.3642 189.686 92.1761 188.704 92.0925C187.742 91.988 186.269 91.988 184.283 92.0925C184.283 91.5908 184.283 90.9741 184.283 90.2425C184.304 89.4899 184.324 88.8524 184.345 88.3298C186.645 88.2252 188.108 88.0057 188.735 87.6713C189.362 87.3159 189.676 86.7829 189.676 86.0721C189.676 85.3196 189.352 84.7656 188.704 84.4103C188.056 84.0549 186.603 83.8981 184.345 83.9399C184.345 83.5846 184.356 83.1665 184.377 82.6857C184.418 82.2049 184.45 81.6405 184.471 80.9925C184.533 79.2365 185.056 78.0345 186.039 77.3865C187.021 76.7176 188.338 76.31 189.989 76.1636C191.244 76.0591 192.498 75.9546 193.752 75.8501C195.006 75.7456 196.25 75.662 197.483 75.5992C198.717 75.5156 199.919 75.4529 201.089 75.4111C202.281 75.3693 203.431 75.3484 204.539 75.3484C206.211 75.3484 207.402 75.5888 208.113 76.0696C208.824 76.5504 209.179 77.3134 209.179 78.3586C209.179 79.0275 209.075 79.5814 208.866 80.0204C208.657 80.4385 208.333 80.7521 207.894 80.9611C207.476 81.1492 206.943 81.2433 206.295 81.2433C206.232 81.2433 206.148 81.2433 206.044 81.2433C205.96 81.2433 205.866 81.2433 205.761 81.2433C205.657 81.2433 205.552 81.2433 205.448 81.2433C205.176 81.2224 204.904 81.212 204.633 81.212C204.382 81.212 204.162 81.2015 203.974 81.1806C203.347 81.1388 202.678 81.1074 201.967 81.0865C201.278 81.0656 200.598 81.0447 199.929 81.0238C199.783 81.0238 199.637 81.0238 199.49 81.0238C199.344 81.0029 199.187 80.9925 199.02 80.9925C198.874 80.9925 198.727 80.9925 198.581 80.9925C198.435 80.9716 198.288 80.9611 198.142 80.9611C198.017 80.9611 197.891 80.9611 197.766 80.9611C197.494 80.9402 197.233 80.9298 196.982 80.9298C196.752 80.9298 196.532 80.9298 196.323 80.9298C195.571 80.9298 195.069 81.097 194.818 81.4314C194.567 81.7659 194.484 82.5185 194.567 83.6891C194.693 85.4032 194.85 86.9605 195.038 88.3611C195.226 89.7617 195.445 91.2981 195.696 92.9704C195.822 93.7857 196.01 94.3397 196.261 94.6323C196.532 94.925 196.992 95.0399 197.64 94.9772C198.56 94.8727 199.501 94.7577 200.462 94.6323C201.445 94.486 202.281 94.371 202.971 94.2874C203.786 94.1829 204.392 94.4024 204.789 94.9459C205.208 95.4894 205.417 96.1269 205.417 96.8586C205.417 97.5484 205.218 98.2069 204.821 98.834C204.424 99.4402 203.828 99.7642 203.033 99.806C202.574 99.8269 202.093 99.8478 201.591 99.8687C201.089 99.8897 200.567 99.9106 200.023 99.9315C199.793 99.9524 199.563 99.9628 199.333 99.9628C199.124 99.9628 198.905 99.9733 198.675 99.9942C198.466 99.9942 198.246 100.005 198.017 100.026C197.807 100.026 197.598 100.026 197.389 100.026C196.992 100.046 196.595 100.067 196.198 100.088C195.822 100.088 195.435 100.099 195.038 100.12C194.912 100.12 194.776 100.12 194.63 100.12C194.505 100.12 194.369 100.13 194.222 100.151C194.097 100.151 193.961 100.151 193.815 100.151C193.689 100.151 193.564 100.161 193.439 100.182C193.313 100.182 193.177 100.182 193.031 100.182C192.906 100.182 192.78 100.193 192.655 100.214C192.32 100.235 191.986 100.255 191.651 100.276C191.338 100.297 191.035 100.308 190.742 100.308C190.282 100.329 189.906 100.506 189.613 100.841C189.341 101.175 189.279 101.771 189.425 102.628C189.718 104.154 190.052 105.67 190.428 107.175C190.805 108.659 191.223 110.174 191.683 111.721C191.933 112.557 192.237 113.101 192.592 113.352C192.947 113.582 193.439 113.665 194.066 113.603C196.177 113.373 198.278 113.122 200.368 112.85C202.48 112.578 204.643 112.348 206.859 112.16C207.821 112.077 208.531 112.369 208.991 113.038C209.472 113.707 209.712 114.439 209.712 115.233C209.712 115.944 209.514 116.602 209.117 117.209C208.74 117.815 208.155 118.139 207.361 118.181C204.141 118.306 200.901 118.358 197.64 118.337C194.4 118.317 191.16 118.306 187.92 118.306C186.478 118.306 185.443 117.961 184.816 117.271C184.209 116.581 183.906 115.63 183.906 114.418ZM192.435 116.237L196.511 116.299C196.595 118.661 196.585 120.417 196.48 121.567C196.396 122.738 196.187 123.511 195.853 123.887C195.539 124.264 195.09 124.452 194.505 124.452C193.898 124.452 193.439 124.253 193.125 123.856C192.832 123.48 192.634 122.706 192.529 121.536C192.446 120.365 192.414 118.599 192.435 116.237ZM202.03 123.511C201.946 122.382 201.873 121.233 201.811 120.062C201.748 118.912 201.696 117.763 201.654 116.613C201.633 115.296 201.769 114.397 202.061 113.916C202.375 113.415 202.908 113.164 203.661 113.164C204.33 113.164 204.821 113.394 205.134 113.854C205.469 114.292 205.667 115.045 205.73 116.111C205.793 117.303 205.845 118.484 205.887 119.654C205.929 120.825 205.96 122.006 205.981 123.198C206.023 124.264 205.866 125.037 205.511 125.518C205.176 126.02 204.706 126.27 204.1 126.27C203.472 126.27 202.992 126.061 202.657 125.643C202.344 125.246 202.135 124.535 202.03 123.511ZM203.41 109.338C202.302 109.338 201.445 109.035 200.839 108.429C200.253 107.823 199.961 106.955 199.961 105.826C199.961 104.698 200.243 103.872 200.807 103.349C201.393 102.827 202.197 102.565 203.222 102.565C204.33 102.565 205.187 102.848 205.793 103.412C206.42 103.976 206.733 104.718 206.733 105.638C206.733 106.892 206.42 107.823 205.793 108.429C205.187 109.035 204.392 109.338 203.41 109.338ZM199.333 77.606C199.333 77.1879 199.532 76.8221 199.929 76.5086C200.326 76.195 200.776 76.0382 201.278 76.0382C201.821 76.0382 202.323 76.1009 202.783 76.2264C203.263 76.3309 203.514 76.6235 203.535 77.1043C203.577 77.3134 203.608 77.5329 203.629 77.7628C203.65 77.9718 203.661 78.1704 203.661 78.3586C203.661 78.8184 203.472 79.2156 203.096 79.5501C202.72 79.8846 202.26 80.0518 201.717 80.0518C201.215 80.0518 200.724 79.9682 200.243 79.8009C199.783 79.6128 199.522 79.2574 199.459 78.7348C199.438 78.5467 199.407 78.3586 199.365 78.1704C199.344 77.9823 199.333 77.7942 199.333 77.606ZM190.805 79.6755L190.24 83.6891C189.488 83.5846 188.902 83.3964 188.484 83.1247C188.066 82.832 187.857 82.3303 187.857 81.6196C187.857 80.7416 188.119 80.1981 188.641 79.9891C189.185 79.78 189.906 79.6755 190.805 79.6755Z" fill="url(#paint0_linear_1_657)"/>
<path d="M146.401 116.048C146.087 113.185 145.805 110.049 145.554 106.642C145.324 103.213 145.146 99.7956 145.021 96.3883C144.958 94.716 144.948 93.0959 144.99 91.5281C145.031 89.9603 145.126 88.5807 145.272 87.3891C146.965 87.8908 148.272 88.1208 149.191 88.079C150.111 88.0162 150.707 87.6609 150.979 87.0128C151.292 86.2603 151.104 85.5391 150.414 84.8493C149.745 84.1386 148.282 83.3965 146.024 82.623C146.401 81.7032 146.902 80.7626 147.53 79.801C148.178 78.8394 148.846 78.066 149.536 77.4806C150.791 79.1948 151.804 80.2818 152.578 80.7417C153.372 81.1806 154.114 81.1388 154.804 80.6162C155.473 80.1354 155.651 79.3306 155.337 78.2018C155.024 77.0521 154.428 75.9128 153.55 74.784C154.407 74.4078 155.567 74.1046 157.03 73.8747C158.494 73.6448 159.758 73.5298 160.824 73.5298C163.73 73.5298 166.259 73.8433 168.413 74.4705C170.566 75.0767 172.353 75.9756 173.774 77.1671C175.196 78.3377 176.252 79.7592 176.941 81.4315C177.652 83.0829 178.008 84.9643 178.008 87.0756C178.008 89.3959 177.548 91.434 176.628 93.19C175.708 94.9459 174.433 96.3256 172.802 97.329C171.172 98.3115 169.291 98.8027 167.158 98.8027C165.361 98.8027 163.845 98.4891 162.612 97.862C161.399 97.214 160.48 96.3256 159.852 95.1968C159.246 94.0679 158.943 92.7614 158.943 91.2773C158.943 89.166 159.57 87.4832 160.824 86.229C162.079 84.9538 163.646 84.3162 165.528 84.3162C167.054 84.3162 168.256 84.6925 169.134 85.445C170.033 86.1976 170.482 87.0651 170.482 88.0476C170.482 88.612 170.336 89.0719 170.043 89.4273C169.771 89.7617 169.353 89.929 168.789 89.929C168.413 89.929 168.12 89.8558 167.911 89.7095C167.723 89.5422 167.545 89.3541 167.378 89.1451C167.232 88.9151 167.033 88.727 166.782 88.5806C166.531 88.4134 166.155 88.3298 165.653 88.3298C165.005 88.3298 164.514 88.5806 164.18 89.0823C163.866 89.584 163.709 90.1694 163.709 90.8383C163.709 91.9253 164.054 92.8346 164.744 93.5662C165.434 94.2979 166.322 94.6637 167.409 94.6637C169.228 94.6637 170.66 93.9948 171.705 92.6569C172.771 91.2982 173.304 89.5422 173.304 87.3891C173.304 84.9643 172.646 82.9993 171.329 81.4942C170.033 79.9891 168.204 79.2366 165.841 79.2366C163.96 79.2366 162.277 79.7174 160.793 80.6789C159.33 81.6196 158.086 82.9993 157.062 84.8179C156.058 86.6366 155.306 88.8315 154.804 91.4027C154.386 93.6603 154.083 95.4581 153.895 96.7959C153.728 98.1129 153.675 99.1267 153.738 99.8374C153.822 100.548 154.01 101.081 154.302 101.437C154.595 101.792 154.992 102.126 155.494 102.44C155.87 102.649 156.32 102.9 156.842 103.193C157.365 103.464 157.94 103.757 158.567 104.07C158.797 104.154 159.027 104.259 159.257 104.384C159.508 104.509 159.758 104.624 160.009 104.729C160.302 104.854 160.595 104.99 160.887 105.137C161.201 105.283 161.514 105.429 161.828 105.576C162.079 105.68 162.319 105.795 162.549 105.92C162.8 106.025 163.04 106.13 163.27 106.234C163.542 106.359 163.793 106.485 164.023 106.61C164.253 106.736 164.483 106.851 164.713 106.955C164.901 107.039 165.078 107.122 165.246 107.206C165.434 107.29 165.611 107.373 165.779 107.457C165.967 107.541 166.155 107.624 166.343 107.708C168.726 108.858 170.681 109.819 172.207 110.593C173.733 111.366 174.914 112.066 175.75 112.693C176.586 113.3 177.171 113.916 177.506 114.543C177.84 115.15 178.008 115.86 178.008 116.676C178.008 117.386 177.757 118.024 177.255 118.588C176.753 119.153 176.043 119.435 175.123 119.435C174.726 119.435 174.276 119.362 173.774 119.215C173.294 119.09 172.646 118.818 171.83 118.4C171.036 117.982 169.97 117.365 168.632 116.55C167.294 115.735 165.58 114.648 163.49 113.289C161.42 111.93 158.859 110.237 155.807 108.209C154.679 107.457 153.801 107.185 153.174 107.394C152.567 107.582 152.17 108.168 151.982 109.15C151.71 110.467 151.512 111.815 151.386 113.195C151.261 114.554 151.104 115.672 150.916 116.55C150.707 117.449 150.446 118.139 150.132 118.62C149.818 119.08 149.327 119.309 148.658 119.309C147.906 119.309 147.373 119.038 147.059 118.494C146.746 117.951 146.526 117.135 146.401 116.048ZM149.223 114.418C148.658 114.418 148.219 114.282 147.906 114.01C147.613 113.718 147.467 113.164 147.467 112.348C147.467 111.659 147.592 111.188 147.843 110.937C148.115 110.687 148.533 110.593 149.097 110.655L149.223 114.418ZM147.341 104.509C146.965 104.468 146.662 104.342 146.432 104.133C146.202 103.924 146.087 103.464 146.087 102.754C146.087 101.959 146.202 101.447 146.432 101.217C146.683 100.987 147.132 100.893 147.78 100.935L147.341 104.509ZM170.043 106.767C169.04 106.767 168.245 106.506 167.66 105.983C167.075 105.461 166.782 104.76 166.782 103.882C166.782 102.691 167.043 101.813 167.566 101.248C168.089 100.663 168.852 100.37 169.855 100.37C170.963 100.37 171.799 100.632 172.363 101.154C172.949 101.656 173.241 102.44 173.241 103.506C173.241 104.53 172.97 105.335 172.426 105.92C171.904 106.485 171.109 106.767 170.043 106.767Z" fill="url(#paint1_linear_1_657)"/>
<path d="M122.349 119.309C119.694 119.309 117.384 118.996 115.419 118.369C113.475 117.721 111.865 116.77 110.59 115.515C109.315 114.24 108.364 112.672 107.737 110.812C107.11 108.951 106.796 106.798 106.796 104.353C106.796 103.077 106.817 101.583 106.859 99.8686C106.922 98.1545 106.995 96.3254 107.078 94.3814C107.183 92.4373 107.298 90.4619 107.423 88.4551C107.549 86.4483 107.674 84.5042 107.799 82.6229C107.946 80.7415 108.092 79.0274 108.238 77.4805C108.343 76.3099 108.604 75.3901 109.022 74.7212C109.44 74.0522 110.099 73.7178 110.998 73.7178C111.98 73.7178 112.67 74.1463 113.067 75.0034C113.485 75.8604 113.694 76.9997 113.694 78.4212C113.694 79.2782 113.673 80.4907 113.632 82.0585C113.59 83.6054 113.538 85.3613 113.475 87.3263C113.433 89.2703 113.381 91.298 113.318 93.4093C113.276 95.5206 113.235 97.5692 113.193 99.5551C113.151 101.52 113.13 103.286 113.13 104.854C113.13 106.568 113.297 108.042 113.632 109.275C113.966 110.488 114.531 111.418 115.325 112.066C116.119 112.714 117.185 113.038 118.523 113.038C119.673 113.038 120.666 112.819 121.502 112.38C122.359 111.941 123.08 111.23 123.666 110.247C124.251 109.244 124.732 107.917 125.108 106.265C125.547 104.384 125.955 102.461 126.331 100.496C126.728 98.5099 127.094 96.4613 127.428 94.35C127.784 92.2387 128.15 90.0333 128.526 87.7339C128.902 85.4345 129.31 83.02 129.749 80.4907C129.979 79.1946 130.365 78.2226 130.909 77.5746C131.452 76.9265 132.174 76.6025 133.072 76.6025C134.055 76.6025 134.776 76.9579 135.236 77.6686C135.696 78.3585 135.999 79.2364 136.145 80.3025C136.354 81.6613 136.584 83.2709 136.835 85.1313C137.107 86.9918 137.368 88.9359 137.619 90.9636C137.87 92.9912 138.1 94.9562 138.309 96.8585C138.539 98.7607 138.716 100.454 138.842 101.938C138.988 103.401 139.061 104.488 139.061 105.199C139.061 108.314 138.445 110.916 137.211 113.007C135.999 115.097 134.149 116.675 131.661 117.742C129.195 118.787 126.09 119.309 122.349 119.309ZM119.809 101.687C118.952 101.687 118.178 101.478 117.488 101.06C116.82 100.642 116.485 99.8896 116.485 98.8026C116.485 97.8619 116.757 97.0257 117.3 96.2941C117.865 95.5415 118.701 95.1653 119.809 95.1653C120.666 95.1653 121.398 95.4161 122.004 95.9178C122.61 96.4195 122.913 97.1302 122.913 98.05C122.913 99.0743 122.62 99.9418 122.035 100.653C121.471 101.342 120.729 101.687 119.809 101.687ZM116.642 83.5008C118.272 83.5008 119.464 83.5949 120.216 83.783C120.969 83.9712 121.345 84.4624 121.345 85.2568C121.345 86.1556 120.99 86.7305 120.279 86.9813C119.568 87.2113 118.377 87.4099 116.705 87.5771C115.116 87.7234 113.527 87.8384 111.938 87.922C110.371 87.9847 108.803 88.037 107.235 88.0788C105.458 88.0997 104.162 87.9847 103.347 87.7339C102.553 87.4621 102.155 86.9082 102.155 86.072C102.155 85.1941 102.521 84.6297 103.253 84.3788C104.005 84.128 105.207 83.9607 106.859 83.8771C108.489 83.7726 110.12 83.689 111.75 83.6263C113.381 83.5635 115.011 83.5217 116.642 83.5008ZM109.305 91.3398C109.785 91.298 110.172 91.3607 110.465 91.528C110.778 91.6743 111.008 91.9251 111.155 92.2805C111.301 92.6359 111.374 93.0749 111.374 93.5975C111.374 93.911 111.322 94.1723 111.217 94.3814C111.113 94.5904 110.956 94.7681 110.747 94.9144C110.538 95.0607 110.287 95.1862 109.994 95.2907C109.723 95.3743 109.357 95.4788 108.897 95.6042C108.458 95.7088 108.029 95.7924 107.611 95.8551C105.73 96.1686 104.235 96.2418 103.127 96.0746C102.02 95.9073 101.466 95.2907 101.466 94.2246C101.466 93.5556 101.884 93.033 102.72 92.6568C103.556 92.2805 105.166 91.9042 107.549 91.528C107.841 91.4862 108.134 91.4548 108.427 91.4339C108.74 91.3921 109.033 91.3607 109.305 91.3398ZM133.888 86.4483C134.389 86.4065 134.776 86.5946 135.048 87.0127C135.32 87.4308 135.455 87.8907 135.455 88.3924C135.455 88.8941 135.32 89.3539 135.048 89.772C134.797 90.1901 134.389 90.4201 133.825 90.4619C133.637 90.4619 133.438 90.4619 133.229 90.4619C133.02 90.4619 132.822 90.4619 132.633 90.4619C132.006 90.4828 131.525 90.2424 131.191 89.7407C130.857 89.239 130.689 88.7059 130.689 88.1415C130.689 87.7025 130.804 87.3158 131.034 86.9813C131.264 86.626 131.63 86.4483 132.132 86.4483C132.424 86.4483 132.717 86.4483 133.01 86.4483C133.323 86.4483 133.616 86.4483 133.888 86.4483ZM132.32 107.143C133.365 107.143 134.128 106.903 134.609 106.422C135.09 105.941 135.33 105.325 135.33 104.572C135.33 103.443 135.079 102.618 134.577 102.095C134.097 101.572 133.428 101.311 132.571 101.311C131.63 101.311 130.877 101.572 130.313 102.095C129.77 102.597 129.498 103.255 129.498 104.07C129.498 105.011 129.77 105.764 130.313 106.328C130.877 106.871 131.546 107.143 132.32 107.143ZM132.822 97.9246C133.574 97.9246 134.128 97.726 134.483 97.3288C134.839 96.9316 135.016 96.2523 135.016 95.2907C135.016 94.6845 134.818 94.1932 134.421 93.8169C134.044 93.4198 133.574 93.2212 133.01 93.2212C132.174 93.2212 131.526 93.4198 131.066 93.8169C130.606 94.1932 130.376 94.7472 130.376 95.4788C130.376 96.1896 130.585 96.7749 131.003 97.2347C131.442 97.6946 132.048 97.9246 132.822 97.9246ZM129.999 114.23C130.731 114.23 131.275 114.052 131.63 113.697C132.006 113.341 132.194 112.85 132.194 112.223C132.194 111.345 132.006 110.718 131.63 110.342C131.254 109.965 130.606 109.777 129.686 109.777C129.163 109.777 128.703 109.986 128.306 110.404C127.93 110.801 127.742 111.345 127.742 112.035C127.742 112.662 127.94 113.184 128.338 113.603C128.756 114.021 129.31 114.23 129.999 114.23Z" fill="url(#paint2_linear_1_657)"/>
<path d="M86.4319 117.804C86.1601 117.804 85.8988 117.752 85.648 117.648C85.3971 117.543 85.1567 117.386 84.9268 117.177C84.7596 117.01 84.6132 116.801 84.4878 116.55C84.3624 116.299 84.2474 115.954 84.1429 115.515C84.0593 115.055 83.9861 114.428 83.9234 113.634C83.8607 112.84 83.798 111.805 83.7353 110.53C83.7143 110.007 83.6934 109.505 83.6725 109.025C83.6516 108.544 83.6307 108.074 83.6098 107.614C83.5889 107.216 83.568 106.83 83.5471 106.453C83.5471 106.056 83.5367 105.67 83.5158 105.293C83.4949 104.75 83.4739 104.227 83.453 103.726C83.453 103.224 83.4322 102.733 83.3903 102.252C83.3903 102.064 83.3799 101.876 83.359 101.687C83.359 101.499 83.359 101.311 83.359 101.123C83.359 100.914 83.3485 100.726 83.3276 100.559C83.3276 100.35 83.3172 100.151 83.2963 99.9628C83.2963 99.7538 83.2858 99.5552 83.2649 99.367C83.2649 99.158 83.2545 98.9594 83.2336 98.7713C83.1917 97.7261 83.1395 96.66 83.0768 95.573C83.035 94.4651 82.9827 93.3049 82.92 92.0925C82.8573 90.8173 82.5542 89.8139 82.0107 89.0823C81.4881 88.3506 80.8296 87.7758 80.0352 87.3577C79.2409 86.9187 78.3943 86.532 77.4954 86.1975C76.6174 85.8631 75.7917 85.4659 75.0183 85.006C74.2449 84.5461 73.6073 83.919 73.1056 83.1246C72.6248 82.3094 72.3844 81.2224 72.3844 79.8636C72.3844 78.7139 72.5621 77.7732 72.9174 77.0416C73.2728 76.289 73.8372 75.7351 74.6107 75.3797C75.405 75.0244 76.4607 74.8467 77.7776 74.8467C77.5895 77.0416 77.6522 78.5362 77.9658 79.3306C78.3002 80.104 78.781 80.4907 79.4081 80.4907C80.098 80.4907 80.6206 80.1354 80.9759 79.4247C81.3313 78.693 81.5194 77.1879 81.5403 74.9094C82.1048 74.9094 82.6901 74.9094 83.2963 74.9094C83.9025 74.9094 84.4878 74.9094 85.0522 74.9094C84.9895 76.7698 84.9895 78.2018 85.0522 79.2052C85.1358 80.1876 85.3135 80.867 85.5853 81.2433C85.857 81.6196 86.2437 81.8077 86.7454 81.8077C87.1844 81.8077 87.5607 81.63 87.8742 81.2746C88.2087 80.8984 88.4596 80.219 88.6268 79.2365C88.794 78.254 88.8776 76.8326 88.8776 74.9721C91.6788 74.9721 93.9364 75.0035 95.6505 75.0662C97.3646 75.108 98.6607 75.2125 99.5387 75.3797C100.438 75.5261 101.033 75.7769 101.326 76.1323C101.64 76.4667 101.796 76.9371 101.796 77.5433C101.796 78.1913 101.525 78.6826 100.981 79.017C100.458 79.3306 99.7686 79.571 98.9115 79.7382C98.0754 79.8845 97.1765 80.0309 96.2149 80.1772C95.2743 80.3026 94.3649 80.5012 93.487 80.773C92.6299 81.0238 91.9087 81.421 91.3234 81.9645C90.759 82.508 90.4454 83.2814 90.3827 84.2848C90.0064 89.8662 89.7138 94.5591 89.5048 98.3637C89.2957 102.147 89.118 105.241 88.9717 107.645C88.8463 110.028 88.7313 111.878 88.6268 113.195C88.5223 114.512 88.3969 115.474 88.2505 116.08C88.1042 116.665 87.9161 117.073 87.6861 117.303C87.5607 117.449 87.3725 117.574 87.1217 117.679C86.8917 117.763 86.6618 117.804 86.4319 117.804ZM95.8387 90.2738C94.9398 90.2738 94.135 89.9707 93.4242 89.3645C92.7344 88.7583 92.3895 87.8908 92.3895 86.7619C92.3895 85.5913 92.7031 84.6507 93.3302 83.9399C93.9573 83.2292 94.9398 82.8738 96.2776 82.8738C97.3228 82.8738 98.1695 83.2187 98.8175 83.9086C99.4655 84.5775 99.7895 85.3823 99.7895 86.323C99.7895 87.7026 99.4655 88.706 98.8175 89.3331C98.1904 89.9603 97.1974 90.2738 95.8387 90.2738ZM87.5607 110.718L87.3725 106.203C89.8601 106.098 91.7728 106.056 93.1107 106.077C94.4486 106.098 95.3683 106.255 95.87 106.548C96.3926 106.84 96.6539 107.331 96.6539 108.021C96.6539 108.857 96.4031 109.453 95.9014 109.809C95.4206 110.143 94.5217 110.363 93.2048 110.467C91.9087 110.551 90.0274 110.634 87.5607 110.718ZM85.0522 93.6603L84.9895 98.4264C82.2929 98.4055 80.2129 98.3532 78.7497 98.2696C77.2864 98.186 76.2621 97.9665 75.6768 97.6111C75.1124 97.2348 74.8302 96.6286 74.8302 95.7925C74.8302 94.9354 75.1542 94.3501 75.8022 94.0365C76.4711 93.7021 77.5581 93.5348 79.0632 93.5348C80.5683 93.5139 82.5646 93.5557 85.0522 93.6603Z" fill="url(#paint3_linear_1_657)"/>
<path d="M51.9698 117.742C49.9421 117.742 48.113 117.47 46.4825 116.926C44.852 116.383 43.441 115.547 42.2494 114.418C41.0579 113.268 40.0963 111.847 39.3647 110.153C38.633 108.439 38.1523 106.453 37.9223 104.196C37.776 102.837 37.6087 101.227 37.4206 99.367C37.2534 97.4856 37.0862 95.5206 36.9189 93.4721C36.7517 91.4026 36.5949 89.3958 36.4486 87.4517C36.3023 85.4867 36.1768 83.7413 36.0723 82.2153C35.9887 80.6684 35.9469 79.5082 35.9469 78.7348C35.9469 77.3133 36.25 76.289 36.8562 75.6619C37.4624 75.0348 38.3404 74.7212 39.4901 74.7212C40.6816 74.7212 41.5282 75.0975 42.0299 75.85C42.5525 76.5816 42.8138 77.7941 42.8138 79.4873C42.8138 80.5534 42.8034 81.6404 42.7825 82.7483C42.7616 83.8562 42.7302 84.985 42.6884 86.1348C42.6675 87.2636 42.6466 88.4133 42.6257 89.5839C42.6048 90.7545 42.5839 91.9252 42.563 93.0958C42.5421 94.2664 42.5316 95.437 42.5316 96.6077C42.5316 98.3427 42.5944 99.8269 42.7198 101.06C42.8452 102.273 43.1901 103.192 43.7545 103.82C44.3398 104.447 45.3223 104.76 46.702 104.76C48.3325 104.76 49.848 104.405 51.2486 103.694C52.6701 102.983 53.9557 101.928 55.1054 100.527C56.2551 99.1266 57.2167 97.3811 57.9901 95.2907C58.4918 93.911 58.9517 92.5732 59.3698 91.2771C59.7879 89.9602 60.185 88.6746 60.5613 87.4204C60.9376 86.1661 61.3139 84.9328 61.6901 83.7204C62.0664 82.487 62.4636 81.2641 62.8817 80.0517C63.1952 79.1319 63.5401 78.4526 63.9164 78.0136C64.3136 77.5746 64.8257 77.3551 65.4528 77.3551C66.1218 77.3551 66.5921 77.6059 66.8639 78.1076C67.1356 78.5884 67.2819 79.2887 67.3028 80.2085C67.2819 81.191 67.2401 82.4452 67.1774 83.9712C67.1147 85.4763 67.0415 87.1173 66.9579 88.8941C66.8743 90.6709 66.7698 92.4687 66.6444 94.2873C66.519 96.106 66.3831 97.841 66.2368 99.4924C66.1113 101.123 65.9964 102.544 65.8918 103.757C65.5574 107.227 64.7003 109.986 63.3206 112.035C61.941 114.062 60.2582 115.526 58.2723 116.425C56.2865 117.303 54.1856 117.742 51.9698 117.742ZM49.1477 101.687C48.1862 101.687 47.4232 101.374 46.8588 100.747C46.2944 100.099 46.0121 99.1893 46.0121 98.0187C46.0121 97.2661 46.2316 96.6077 46.6706 96.0433C47.1096 95.4579 47.7785 95.1653 48.6774 95.1653C49.9316 95.1653 50.8828 95.4161 51.5308 95.9178C52.1997 96.3986 52.5342 97.1303 52.5342 98.1127C52.5342 99.2834 52.2206 100.172 51.5935 100.778C50.9664 101.384 50.1511 101.687 49.1477 101.687ZM38.1732 83.5009C39.1556 83.4382 39.8977 83.5322 40.3994 83.7831C40.9011 84.013 41.152 84.567 41.152 85.4449C41.152 85.9675 40.9638 86.3752 40.5876 86.6678C40.2113 86.9396 39.5633 87.1382 38.6435 87.2636C38.1836 87.3054 37.7342 87.3786 37.2952 87.4831C36.8562 87.5667 36.4172 87.6398 35.9782 87.7026C34.6404 87.8907 33.5638 87.943 32.7486 87.8593C31.9333 87.7757 31.5257 87.2009 31.5257 86.1348C31.5257 85.5076 31.8183 85.0373 32.4037 84.7237C32.989 84.4102 33.8878 84.1489 35.1003 83.9398C35.602 83.8353 36.1141 83.7413 36.6367 83.6576C37.1593 83.574 37.6715 83.5218 38.1732 83.5009ZM46.6393 88.4551C47.4963 88.3715 48.2175 88.3401 48.8028 88.361C49.409 88.361 49.8689 88.4865 50.1825 88.7373C50.4961 88.9673 50.6528 89.354 50.6528 89.8975C50.6528 90.2947 50.5274 90.6396 50.2766 90.9322C50.0466 91.2249 49.6599 91.4757 49.1164 91.6848C48.5938 91.8938 47.8726 92.0715 46.9528 92.2178C46.1794 92.3432 45.3223 92.4791 44.3816 92.6254C43.441 92.7718 42.4167 92.9077 41.3088 93.0331C40.4517 93.0958 39.7932 93.0331 39.3333 92.8449C38.8943 92.6359 38.6749 92.0924 38.6749 91.2144C38.6749 90.7336 38.8107 90.3365 39.0825 90.0229C39.3542 89.6884 39.741 89.4794 40.2427 89.3958C41.3088 89.1658 42.3749 88.9777 43.441 88.8314C44.5071 88.6641 45.5732 88.5387 46.6393 88.4551ZM66.6444 95.1653C68.6512 95.3534 70.0413 95.6356 70.8147 96.0119C71.5882 96.3673 71.9749 96.8585 71.9749 97.4856C71.9749 98.6771 71.4105 99.3147 70.2817 99.3983C69.1738 99.4611 67.7627 99.4506 66.0486 99.367C65.4842 99.3252 64.8989 99.2729 64.2927 99.2102C63.7074 99.1475 63.1116 99.0743 62.5054 98.9907C61.941 98.8862 61.5124 98.6353 61.2198 98.2382C60.9271 97.8201 60.7808 97.3602 60.7808 96.8585C60.7808 96.315 60.9585 95.8342 61.3139 95.4161C61.6692 94.998 62.1709 94.8099 62.8189 94.8517C63.4252 94.8726 64.0523 94.9144 64.7003 94.9771C65.3483 95.0399 65.9964 95.1026 66.6444 95.1653ZM57.2062 111.22C57.8543 111.22 58.3978 110.979 58.8367 110.498C59.2757 110.018 59.4952 109.422 59.4952 108.711C59.4952 107.77 59.2757 107.06 58.8367 106.579C58.3978 106.077 57.6766 105.826 56.6732 105.826C55.8997 105.826 55.2831 106.035 54.8232 106.453C54.3633 106.872 54.1334 107.478 54.1334 108.272C54.1334 109.15 54.3737 109.861 54.8545 110.404C55.3353 110.948 56.1192 111.22 57.2062 111.22ZM61.3766 104.572C61.9201 104.572 62.3695 104.373 62.7249 103.976C63.1012 103.558 63.2893 103.004 63.2893 102.314C63.2893 101.625 63.0907 101.092 62.6935 100.715C62.3172 100.318 61.8783 100.12 61.3766 100.12C60.4359 100.12 59.767 100.329 59.3698 100.747C58.9935 101.165 58.8054 101.75 58.8054 102.503C58.8054 103.067 59.004 103.558 59.4011 103.976C59.8192 104.373 60.4777 104.572 61.3766 104.572ZM49.7122 113.164C50.4438 113.164 51.0082 112.965 51.4054 112.568C51.8235 112.15 52.0325 111.617 52.0325 110.969C52.0325 110.174 51.8548 109.599 51.4994 109.244C51.1441 108.889 50.5065 108.711 49.5867 108.711C48.9387 108.711 48.437 108.91 48.0816 109.307C47.7472 109.683 47.5799 110.153 47.5799 110.718C47.5799 111.47 47.789 112.066 48.2071 112.505C48.6251 112.944 49.1268 113.164 49.7122 113.164Z" fill="url(#paint4_linear_1_657)"/>
<path d="M8.09586 119.184C7.94953 116.278 7.79275 113.383 7.62552 110.499C7.47919 107.593 7.32241 104.698 7.15518 101.813C7.00885 98.9073 6.86252 96.0016 6.7162 93.096C9.03654 93.0124 10.6357 92.7929 11.5137 92.4375C12.4125 92.0612 12.862 91.4655 12.862 90.6502C12.862 89.8977 12.3812 89.4169 11.4196 89.2078C10.4789 88.9988 8.8484 88.9779 6.52805 89.1451C6.46534 88.6016 6.41309 88.0581 6.37128 87.5146C6.35038 86.9502 6.33992 86.4067 6.33992 85.8841C7.67778 85.7796 8.75433 85.6228 9.56959 85.4138C10.3848 85.1838 10.9806 84.8912 11.3569 84.5358C11.7331 84.1595 11.9213 83.7101 11.9213 83.1875C11.9213 82.3513 11.3778 81.8183 10.2908 81.5883C9.20377 81.3584 7.7823 81.327 6.02636 81.4943C5.96365 81.0762 5.92184 80.6686 5.90094 80.2714C5.90094 79.8533 5.90094 79.4457 5.90094 79.0485C5.90094 77.7315 6.2145 76.8118 6.84162 76.2892C7.48964 75.7666 8.53483 75.4739 9.97721 75.4112C13.0501 75.2858 16.0394 75.2858 18.945 75.4112C21.8507 75.5157 24.5682 75.7457 27.0976 76.101C28.5818 76.2892 29.6583 76.6968 30.3272 77.3239C31.0171 77.951 31.362 78.6931 31.362 79.5502C31.362 80.7417 30.9753 81.6301 30.2018 82.2155C29.4493 82.7799 28.5608 83.2711 27.5366 83.6892C25.9688 84.3163 24.5055 84.8075 23.1467 85.1629C21.788 85.4974 20.4919 85.9259 19.2586 86.4485C18.736 86.6575 18.2865 86.8666 17.9103 87.0756C17.5549 87.2847 17.2518 87.5146 17.0009 87.7655C16.7501 88.0372 16.5515 88.3508 16.4052 88.7061C16.2798 89.0615 16.1857 89.5214 16.123 90.0858C16.0603 90.6084 16.0185 91.131 15.9976 91.6536C15.9976 92.1553 15.9976 92.6779 15.9976 93.2214C15.9976 93.9321 16.1334 94.4443 16.4052 94.7578C16.6769 95.0505 17.2936 95.1655 18.2552 95.1028C19.6349 94.9982 21.0145 94.8415 22.3942 94.6324C23.7738 94.4234 25.1535 94.2875 26.5332 94.2248C27.432 94.183 28.101 94.392 28.5399 94.8519C28.9789 95.3118 29.1984 95.8344 29.1984 96.4197C29.1984 96.9632 29.0103 97.4963 28.634 98.0189C28.2577 98.5206 27.7038 98.8237 26.9721 98.9282C25.3416 99.1163 23.7738 99.2313 22.2688 99.2731C20.7637 99.294 19.2586 99.409 17.7535 99.618C16.8755 99.7016 16.3947 100.015 16.3111 100.559C16.2275 101.081 16.5411 101.489 17.2518 101.782C18.2552 102.2 19.2481 102.534 20.2306 102.785C21.2131 103.036 22.206 103.381 23.2094 103.82C23.7529 104.05 24.1501 104.374 24.401 104.792C24.6518 105.21 24.7772 105.649 24.7772 106.109C24.7772 106.861 24.4532 107.52 23.8052 108.084C23.1781 108.628 22.3106 108.711 21.2026 108.335C20.3038 108.021 19.4572 107.666 18.6628 107.269C17.8894 106.872 17.0637 106.537 16.1857 106.265C15.3077 105.973 14.6388 105.952 14.1789 106.203C13.7399 106.433 13.4891 106.976 13.4264 107.833C13.28 109.652 13.2069 111.533 13.2069 113.477C13.2278 115.421 13.1546 117.324 12.9874 119.184C12.9456 119.728 12.8097 120.167 12.5798 120.501C12.3498 120.856 12.0572 121.107 11.7018 121.254C11.3464 121.421 10.9597 121.504 10.5416 121.504C9.89359 121.504 9.32919 121.316 8.8484 120.94C8.3676 120.585 8.11676 119.999 8.09586 119.184ZM18.6315 83.4383C19.384 83.4383 19.9798 83.177 20.4188 82.6544C20.8577 82.1318 21.0772 81.4525 21.0772 80.6163C21.0772 79.9474 20.8473 79.3934 20.3874 78.9544C19.9484 78.5155 19.4467 78.296 18.8823 78.296C17.8162 78.296 17.0532 78.5155 16.5933 78.9544C16.1543 79.3725 15.9348 79.9892 15.9348 80.8044C15.9348 81.5779 16.1543 82.2155 16.5933 82.7171C17.0532 83.1979 17.7326 83.4383 18.6315 83.4383Z" fill="url(#paint5_linear_1_657)"/>
<path d="M185.559 55.9992C180.987 55.9992 177.148 54.9636 174.041 52.8924C170.96 50.7959 168.636 47.8911 167.07 44.178C165.504 40.465 164.721 36.1709 164.721 31.2959C164.721 25.2843 165.681 20.0557 167.6 15.6101C169.545 11.1393 172.248 7.67881 175.708 5.22869C179.169 2.75331 183.185 1.51562 187.757 1.51562C190.965 1.51562 193.794 2.10921 196.244 3.29638C198.694 4.48355 200.753 6.22642 202.42 8.52499C204.112 10.7983 205.375 13.5642 206.209 16.8226C207.067 20.0557 207.484 23.7435 207.459 27.886C207.434 34.0492 206.486 39.2146 204.617 43.3824C202.773 47.5501 200.21 50.6948 196.926 52.8166C193.642 54.9383 189.853 55.9992 185.559 55.9992ZM189.803 45.4662C192.152 45.4662 194.198 44.8221 195.941 43.5339C197.709 42.2457 199.073 40.3008 200.033 37.6991C200.993 35.0722 201.472 31.7759 201.472 27.8102C201.472 23.5667 200.98 19.8663 199.995 16.7089C199.01 13.5515 197.57 11.1014 195.676 9.35853C193.781 7.61566 191.47 6.74423 188.742 6.74423C186.62 6.74423 184.701 7.36307 182.983 8.60076C181.265 9.83845 179.901 11.7329 178.891 14.284C177.881 16.8099 177.375 20.0052 177.375 23.8698C177.375 28.1891 177.868 31.9653 178.853 35.1985C179.863 38.4316 181.291 40.9575 183.134 42.7762C185.004 44.5695 187.226 45.4662 189.803 45.4662ZM179.8 45.542C178.866 45.542 178.171 45.7946 177.716 46.2998C177.287 46.7797 177.072 47.6638 177.072 48.952C177.072 49.7097 177.338 50.316 177.868 50.7706C178.424 51.2253 179.245 51.4526 180.331 51.4526C181.164 51.4526 181.808 51.2253 182.263 50.7706C182.743 50.2907 182.983 49.5834 182.983 48.6489C182.983 47.5122 182.73 46.7166 182.225 46.2619C181.745 45.782 180.937 45.542 179.8 45.542ZM173.511 37.3581C172.5 37.3581 171.73 37.6486 171.2 38.2295C170.669 38.7852 170.404 39.5051 170.404 40.3892C170.404 41.6016 170.707 42.5109 171.313 43.1171C171.945 43.7234 172.728 44.0265 173.662 44.0265C174.723 44.0265 175.557 43.7613 176.163 43.2308C176.769 42.6751 177.072 41.9805 177.072 41.1469C177.072 39.8587 176.744 38.9115 176.087 38.3053C175.431 37.6738 174.572 37.3581 173.511 37.3581ZM171.692 27.4313C170.631 27.4313 169.874 27.6965 169.419 28.227C168.964 28.7322 168.737 29.5783 168.737 30.7655C168.737 31.4475 168.977 32.0411 169.457 32.5463C169.962 33.0262 170.783 33.2661 171.92 33.2661C172.677 33.2661 173.309 33.0388 173.814 32.5842C174.319 32.1295 174.572 31.397 174.572 30.3866C174.572 29.2752 174.319 28.5048 173.814 28.0754C173.309 27.646 172.602 27.4313 171.692 27.4313ZM196.395 7.35044C195.916 8.28503 195.398 9.23224 194.842 10.1921C194.286 11.1267 193.718 12.0739 193.137 13.0337C192.127 14.7008 191.268 15.7869 190.561 16.2921C189.879 16.772 189.171 16.8478 188.439 16.5194C187.656 16.1153 187.302 15.4586 187.378 14.5493C187.454 13.6147 187.984 12.2254 188.969 10.3815C189.5 9.39642 190.055 8.41132 190.636 7.42622C191.243 6.44112 191.849 5.48128 192.455 4.5467C192.733 4.09204 193.15 3.83945 193.705 3.78893C194.261 3.71315 194.779 3.78893 195.259 4.01626C195.84 4.26885 196.282 4.68563 196.585 5.26658C196.888 5.84754 196.825 6.54216 196.395 7.35044ZM185.067 4.62248C185.117 4.72351 185.155 4.83718 185.18 4.96347C185.231 5.06451 185.269 5.17817 185.294 5.30447C185.42 5.78439 185.332 6.20116 185.029 6.55479C184.751 6.88315 184.423 7.12311 184.044 7.27467C183.589 7.42622 183.084 7.52726 182.528 7.57778C181.973 7.60303 181.606 7.43885 181.429 7.08523C181.328 6.88315 181.227 6.69371 181.126 6.5169C181.051 6.31483 180.975 6.12539 180.899 5.94857C180.748 5.59495 180.861 5.24132 181.24 4.8877C181.644 4.50881 182.074 4.24359 182.528 4.09204C183.033 3.94048 183.539 3.88996 184.044 3.94048C184.574 3.96574 184.915 4.19307 185.067 4.62248ZM196.471 32.3568C197.658 32.7105 198.871 33.0893 200.109 33.4935C201.371 33.8976 202.609 34.327 203.822 34.7817C204.428 35.009 204.832 35.3626 205.034 35.8426C205.261 36.3225 205.312 36.8277 205.186 37.3581C205.085 37.9138 204.781 38.4064 204.276 38.8358C203.771 39.2399 203.14 39.3536 202.382 39.1768C201.169 38.8736 199.944 38.5579 198.707 38.2295C197.494 37.8759 196.294 37.5097 195.107 37.1308C192.455 36.2972 190.813 35.5647 190.182 34.9332C189.55 34.2765 189.323 33.5945 189.5 32.8873C189.702 32.079 190.258 31.5864 191.167 31.4096C192.101 31.2075 193.87 31.5233 196.471 32.3568ZM167.373 21.2934C167.499 21.2429 167.625 21.205 167.752 21.1797C167.903 21.1292 168.03 21.0913 168.131 21.0661C168.307 21.0156 168.446 21.0029 168.547 21.0282C168.674 21.0534 168.775 21.1166 168.851 21.2176C168.952 21.2934 169.04 21.3944 169.116 21.5207C169.217 21.6975 169.267 21.8617 169.267 22.0133C169.293 22.1396 169.267 22.2659 169.192 22.3922C169.141 22.4932 169.04 22.5816 168.888 22.6574C168.787 22.6826 168.674 22.7332 168.547 22.8089C168.446 22.8595 168.333 22.91 168.206 22.9605C168.03 23.0363 167.865 22.9984 167.714 22.8468C167.562 22.6953 167.423 22.5058 167.297 22.2785C167.221 22.0512 167.183 21.8365 167.183 21.6344C167.209 21.4323 167.272 21.3187 167.373 21.2934ZM201.7 18.4139C202.458 18.1865 203.14 18.1739 203.746 18.376C204.352 18.5781 204.781 19.1211 205.034 20.0052C205.312 20.864 205.312 21.546 205.034 22.0512C204.756 22.5563 204.2 22.9605 203.367 23.2636C202.836 23.4909 202.268 23.7183 201.662 23.9456C201.056 24.1477 200.184 24.4003 199.048 24.7034C196.901 25.2338 195.385 25.4611 194.501 25.3854C193.617 25.3096 193.036 24.8802 192.758 24.0971C192.455 23.1878 192.644 22.4174 193.326 21.7859C194.008 21.1292 195.385 20.4599 197.456 19.7779C198.34 19.4748 199.086 19.2222 199.692 19.0201C200.323 18.7928 200.993 18.5907 201.7 18.4139ZM199.275 44.7842C199.427 44.9611 199.565 45.1379 199.692 45.3147C199.843 45.4662 199.982 45.643 200.109 45.8451C200.386 46.1735 200.538 46.6155 200.563 47.1712C200.588 47.7017 200.235 48.2952 199.502 48.952C198.745 49.6592 198.075 49.9244 197.494 49.7476C196.913 49.5708 196.446 49.2803 196.092 48.8762C195.916 48.5983 195.764 48.3836 195.638 48.2321C195.537 48.0553 195.41 47.8658 195.259 47.6638C194.93 47.1333 194.817 46.5776 194.918 45.9967C195.044 45.4157 195.41 44.8853 196.017 44.4054C196.623 43.9002 197.229 43.7234 197.835 43.8749C198.467 44.0265 198.947 44.3296 199.275 44.7842Z" fill="url(#paint6_linear_1_657)"/>
<path d="M121.561 51.3768C121.182 47.9163 120.841 44.1274 120.538 40.0102C120.26 35.8677 120.045 31.7379 119.894 27.6207C119.818 25.6 119.805 23.6424 119.856 21.748C119.906 19.8536 120.02 18.1865 120.197 16.7467C122.243 17.3529 123.822 17.6308 124.933 17.5802C126.044 17.5045 126.764 17.0751 127.093 16.292C127.472 15.3827 127.244 14.5113 126.411 13.6777C125.602 12.8189 123.834 11.9222 121.106 10.9877C121.561 9.87626 122.167 8.73961 122.925 7.57769C123.708 6.41578 124.516 5.4812 125.35 4.77395C126.865 6.84518 128.09 8.15865 129.025 8.71435C129.985 9.24479 130.881 9.19427 131.715 8.56279C132.523 7.98184 132.738 7.00937 132.359 5.64538C131.98 4.25614 131.26 2.87952 130.199 1.51554C131.235 1.06088 132.637 0.694624 134.405 0.416775C136.173 0.138925 137.701 0 138.99 0C142.501 0 145.557 0.378885 148.159 1.13665C150.76 1.86916 152.92 2.9553 154.638 4.39506C156.355 5.80957 157.631 7.52717 158.464 9.54789C159.323 11.5434 159.752 13.8167 159.752 16.3678C159.752 19.1716 159.197 21.6343 158.085 23.7561C156.974 25.8778 155.433 27.5449 153.463 28.7573C151.493 29.9445 149.219 30.5381 146.643 30.5381C144.471 30.5381 142.64 30.1592 141.149 29.4014C139.684 28.6184 138.573 27.5449 137.815 26.1809C137.083 24.8169 136.716 23.2383 136.716 21.4449C136.716 18.8937 137.474 16.8604 138.99 15.3448C140.505 13.804 142.4 13.0336 144.673 13.0336C146.517 13.0336 147.969 13.4883 149.03 14.3976C150.116 15.3069 150.659 16.3552 150.659 17.5424C150.659 18.2243 150.482 18.78 150.129 19.2094C149.8 19.6136 149.295 19.8157 148.613 19.8157C148.159 19.8157 147.805 19.7273 147.552 19.5504C147.325 19.3484 147.11 19.121 146.908 18.8685C146.731 18.5906 146.492 18.3633 146.188 18.1865C145.885 17.9844 145.431 17.8834 144.824 17.8834C144.041 17.8834 143.448 18.1865 143.044 18.7927C142.665 19.3989 142.475 20.1061 142.475 20.9144C142.475 22.2279 142.892 23.3267 143.726 24.2107C144.559 25.0948 145.633 25.5368 146.946 25.5368C149.144 25.5368 150.874 24.7285 152.137 23.112C153.425 21.4701 154.069 19.3484 154.069 16.7467C154.069 13.8167 153.274 11.4423 151.682 9.62367C150.116 7.80502 147.906 6.8957 145.052 6.8957C142.778 6.8957 140.745 7.47666 138.952 8.63857C137.184 9.77522 135.681 11.4423 134.443 13.6398C133.231 15.8374 132.321 18.4896 131.715 21.5964C131.21 24.3244 130.844 26.4967 130.616 28.1132C130.414 29.7046 130.351 30.9296 130.427 31.7884C130.528 32.6472 130.755 33.2913 131.109 33.7207C131.462 34.1501 131.942 34.5543 132.549 34.9332C133.003 35.1857 133.546 35.4889 134.178 35.8425C134.809 36.1709 135.504 36.5245 136.262 36.9034C136.539 37.0044 136.817 37.1307 137.095 37.2822C137.398 37.4338 137.701 37.5727 138.004 37.699C138.358 37.8506 138.712 38.0148 139.065 38.1916C139.444 38.3684 139.823 38.5452 140.202 38.722C140.505 38.8483 140.796 38.9872 141.073 39.1388C141.377 39.2651 141.667 39.3914 141.945 39.5177C142.273 39.6692 142.576 39.8208 142.854 39.9723C143.132 40.1239 143.41 40.2628 143.688 40.3891C143.915 40.4901 144.13 40.5912 144.332 40.6922C144.559 40.7932 144.774 40.8943 144.976 40.9953C145.203 41.0963 145.431 41.1974 145.658 41.2984C148.537 42.6877 150.899 43.8496 152.743 44.7842C154.587 45.7187 156.014 46.5649 157.025 47.3227C158.035 48.0552 158.742 48.8003 159.146 49.5581C159.55 50.2906 159.752 51.1494 159.752 52.1345C159.752 52.9933 159.449 53.7637 158.843 54.4457C158.237 55.1277 157.378 55.4687 156.267 55.4687C155.787 55.4687 155.244 55.3803 154.638 55.2035C154.057 55.0519 153.274 54.7236 152.288 54.2184C151.329 53.7132 150.04 52.9681 148.424 51.983C146.807 50.9979 144.736 49.6844 142.21 48.0426C139.709 46.4007 136.615 44.3548 132.927 41.9046C131.563 40.9953 130.503 40.667 129.745 40.9195C129.012 41.1469 128.532 41.8541 128.305 43.0413C127.977 44.6326 127.737 46.2618 127.585 47.9289C127.434 49.5707 127.244 50.9221 127.017 51.983C126.764 53.0691 126.449 53.9026 126.07 54.4836C125.691 55.0393 125.097 55.3172 124.289 55.3172C123.38 55.3172 122.735 54.9888 122.357 54.3321C121.978 53.6753 121.712 52.6902 121.561 51.3768ZM124.971 49.4066C124.289 49.4066 123.758 49.2424 123.38 48.914C123.026 48.5604 122.849 47.891 122.849 46.9059C122.849 46.0724 123.001 45.504 123.304 45.2009C123.632 44.8978 124.137 44.7842 124.819 44.8599L124.971 49.4066ZM122.698 37.4338C122.243 37.3833 121.877 37.2317 121.599 36.9791C121.321 36.7265 121.182 36.1708 121.182 35.312C121.182 34.3522 121.321 33.7334 121.599 33.4555C121.902 33.1777 122.445 33.064 123.228 33.1145L122.698 37.4338ZM150.129 40.1618C148.916 40.1618 147.957 39.846 147.249 39.2146C146.542 38.5831 146.188 37.7369 146.188 36.676C146.188 35.2363 146.504 34.1754 147.136 33.4934C147.767 32.7861 148.689 32.4325 149.901 32.4325C151.24 32.4325 152.251 32.7483 152.933 33.3797C153.64 33.986 153.993 34.9332 153.993 36.2214C153.993 37.4591 153.665 38.4315 153.008 39.1388C152.377 39.8208 151.417 40.1618 150.129 40.1618Z" fill="url(#paint7_linear_1_657)"/>
<path d="M100.233 53.4985C99.9049 53.4985 99.5892 53.4354 99.2861 53.3091C98.983 53.1828 98.6925 52.9933 98.4146 52.7407C98.2126 52.5387 98.0358 52.2861 97.8842 51.983C97.7327 51.6799 97.5937 51.2631 97.4674 50.7326C97.3664 50.1769 97.278 49.4192 97.2022 48.4593C97.1264 47.4995 97.0507 46.2492 96.9749 44.7084C96.9496 44.0769 96.9244 43.4707 96.8991 42.8897C96.8738 42.3088 96.8486 41.7404 96.8233 41.1847C96.7981 40.7048 96.7728 40.2375 96.7476 39.7829C96.7476 39.303 96.7349 38.8357 96.7097 38.381C96.6844 37.7243 96.6592 37.0928 96.6339 36.4866C96.6339 35.8804 96.6086 35.2868 96.5581 34.7058C96.5581 34.4785 96.5455 34.2512 96.5202 34.0238C96.5202 33.7965 96.5202 33.5692 96.5202 33.3418C96.5202 33.0892 96.5076 32.8619 96.4823 32.6598C96.4823 32.4073 96.4697 32.1673 96.4445 31.94C96.4445 31.6874 96.4318 31.4474 96.4066 31.2201C96.4066 30.9675 96.3939 30.7275 96.3687 30.5002C96.3182 29.2373 96.255 27.949 96.1792 26.6356C96.1287 25.2969 96.0656 23.895 95.9898 22.43C95.914 20.8892 95.5478 19.6767 94.891 18.7927C94.2596 17.9086 93.4639 17.214 92.504 16.7088C91.5442 16.1784 90.5212 15.7111 89.4351 15.3069C88.3742 14.9028 87.3765 14.4229 86.4419 13.8672C85.5073 13.3115 84.7369 12.5537 84.1307 11.5939C83.5497 10.6088 83.2593 9.2953 83.2593 7.65346C83.2593 6.26422 83.474 5.12756 83.9034 4.2435C84.3328 3.33418 85.0148 2.66481 85.9493 2.23541C86.9092 1.80601 88.1848 1.59131 89.7761 1.59131C89.5487 4.2435 89.6245 6.04952 90.0034 7.00936C90.4075 7.94394 90.9885 8.41123 91.7463 8.41123C92.5798 8.41123 93.2113 7.98183 93.6407 7.12302C94.0701 6.23896 94.2974 4.42031 94.3227 1.66708C95.0047 1.66708 95.7119 1.66708 96.4445 1.66708C97.177 1.66708 97.8842 1.66708 98.5662 1.66708C98.4904 3.91513 98.4904 5.64537 98.5662 6.8578C98.6672 8.04498 98.882 8.86589 99.2103 9.32055C99.5387 9.77522 100.006 10.0025 100.612 10.0025C101.143 10.0025 101.597 9.78785 101.976 9.35844C102.38 8.90378 102.683 8.08286 102.885 6.89569C103.088 5.70852 103.189 3.99091 103.189 1.74286C106.573 1.74286 109.301 1.78075 111.372 1.85653C113.444 1.90704 115.01 2.03334 116.071 2.23541C117.157 2.41222 117.877 2.71533 118.23 3.14474C118.609 3.54888 118.799 4.1172 118.799 4.84971C118.799 5.63274 118.47 6.22633 117.814 6.63048C117.182 7.00936 116.349 7.29984 115.313 7.50191C114.303 7.67872 113.216 7.85553 112.054 8.03235C110.918 8.1839 109.819 8.42386 108.758 8.75223C107.723 9.05534 106.851 9.53525 106.144 10.192C105.462 10.8487 105.083 11.7833 105.007 12.9957C104.553 19.7399 104.199 25.4105 103.946 30.0077C103.694 34.5795 103.479 38.3179 103.302 41.2226C103.151 44.1022 103.012 46.3376 102.885 47.9289C102.759 49.5202 102.608 50.6821 102.431 51.4146C102.254 52.1219 102.027 52.6144 101.749 52.8923C101.597 53.0691 101.37 53.2207 101.067 53.347C100.789 53.448 100.511 53.4985 100.233 53.4985ZM111.6 20.2324C110.514 20.2324 109.541 19.8662 108.682 19.1337C107.849 18.4012 107.432 17.3529 107.432 15.9889C107.432 14.5744 107.811 13.4378 108.569 12.579C109.327 11.7202 110.514 11.2908 112.13 11.2908C113.393 11.2908 114.416 11.7075 115.199 12.5411C115.982 13.3494 116.374 14.3218 116.374 15.4585C116.374 17.1256 115.982 18.338 115.199 19.0958C114.441 19.8535 113.242 20.2324 111.6 20.2324ZM101.597 44.9357L101.37 39.4798C104.376 39.3535 106.687 39.303 108.304 39.3282C109.92 39.3535 111.032 39.5429 111.638 39.8965C112.269 40.2502 112.585 40.8438 112.585 41.6773C112.585 42.6877 112.282 43.4075 111.676 43.8369C111.095 44.2411 110.009 44.5063 108.417 44.6326C106.851 44.7336 104.578 44.8347 101.597 44.9357ZM98.5662 24.3244L98.4904 30.0834C95.232 30.0582 92.7188 29.995 90.9506 29.894C89.1825 29.793 87.9448 29.5277 87.2376 29.0983C86.5556 28.6437 86.2146 27.9112 86.2146 26.9008C86.2146 25.8652 86.6061 25.1579 87.3891 24.779C88.1974 24.3749 89.5109 24.1728 91.3295 24.1728C93.1481 24.1476 95.5604 24.1981 98.5662 24.3244Z" fill="url(#paint8_linear_1_657)"/>
<path d="M64.7697 53.4228C62.168 53.4228 59.92 53.006 58.0256 52.1725C56.1564 51.3137 54.6156 50.2402 53.4032 48.9519C52.216 47.6385 51.3319 46.2997 50.751 44.9358C50.1953 43.5718 49.9174 42.3846 49.9174 41.3743C49.9174 40.4902 50.1069 39.8713 50.4857 39.5177C50.8899 39.1388 51.433 38.9494 52.1149 38.9494C52.7969 38.9494 53.3147 39.1515 53.6684 39.5556C54.0473 39.9597 54.363 40.5407 54.6156 41.2985C55.0955 42.6625 55.7649 43.8875 56.6237 44.9737C57.5077 46.0598 58.6191 46.9186 59.9579 47.5501C61.3218 48.1815 62.951 48.4973 64.8455 48.4973C67.2451 48.4973 69.19 47.9037 70.6803 46.7165C72.1958 45.5041 72.9536 43.9001 72.9536 41.9047C72.9536 40.2123 72.5116 38.861 71.6275 37.8506C70.7434 36.815 69.5689 35.9688 68.1039 35.3121C66.6641 34.6301 65.0728 34.0113 63.3299 33.4556C61.6123 32.8999 59.8821 32.2558 58.1392 31.5233C56.4216 30.7907 54.8303 29.8435 53.3653 28.6816C51.9255 27.5197 50.7636 26.0042 49.8795 24.135C48.9955 22.2658 48.5534 19.9041 48.5534 17.0499C48.5534 13.7409 49.2228 10.9498 50.5615 8.67651C51.9002 6.4032 53.8073 4.68559 56.2827 3.52368C58.7581 2.33651 61.6881 1.74292 65.0728 1.74292C68.0786 1.74292 70.6171 2.10918 72.6884 2.84169C74.7596 3.57419 76.4141 4.50878 77.6518 5.64543C78.9147 6.75683 79.824 7.90611 80.3797 9.09328C80.9354 10.2805 81.2133 11.3161 81.2133 12.2001C81.2133 13.2863 80.9228 14.0819 80.3419 14.5871C79.7609 15.067 79.0915 15.307 78.3338 15.307C77.5507 15.307 76.8814 15.0291 76.3257 14.4734C75.77 13.8925 75.189 13.2358 74.5828 12.5032C74.0018 11.7707 73.2441 11.1266 72.3095 10.5709C71.3749 9.98997 70.1246 9.6995 68.5585 9.6995C66.7146 9.6995 65.2622 10.2173 64.2014 11.2529C63.1658 12.2885 62.6479 13.6652 62.6479 15.3828C62.6479 16.8983 62.9384 18.2118 63.5194 19.3232C64.1256 20.4346 64.9212 21.4449 65.9063 22.3542C66.9167 23.2383 68.0028 24.0845 69.1648 24.8928C70.3519 25.6758 71.5265 26.5093 72.6884 27.3934C73.8756 28.2775 74.9617 29.2878 75.9468 30.4245C76.9571 31.5359 77.7528 32.8367 78.3338 34.327C78.94 35.8173 79.2431 37.5854 79.2431 39.6314C79.2431 41.7279 78.9147 43.6223 78.258 45.3146C77.6265 47.007 76.6919 48.4594 75.4542 49.6718C74.2165 50.8843 72.701 51.8188 70.9076 52.4756C69.1142 53.107 67.0683 53.4228 64.7697 53.4228ZM60.1473 28.1133C62.0165 28.1133 62.951 27.3303 62.951 25.7642C62.951 24.9307 62.749 24.2992 62.3448 23.8698C61.9407 23.4151 61.3597 23.1878 60.602 23.1878C59.6674 23.1878 58.998 23.4025 58.5939 23.8319C58.215 24.2613 58.0256 24.8801 58.0256 25.6884C58.0256 26.3957 58.2276 26.9766 58.6318 27.4313C59.0359 27.886 59.5411 28.1133 60.1473 28.1133ZM55.9796 21.9754C56.9647 21.9754 57.6972 21.7101 58.1771 21.1797C58.6823 20.624 58.9349 19.9546 58.9349 19.1716C58.9349 18.1865 58.6949 17.4666 58.215 17.012C57.7351 16.532 56.9899 16.2921 55.9796 16.2921C55.045 16.2921 54.3504 16.5194 53.8957 16.9741C53.4663 17.4035 53.2516 18.136 53.2516 19.1716C53.2516 20.0809 53.5042 20.7756 54.0094 21.2555C54.5398 21.7354 55.1965 21.9754 55.9796 21.9754ZM56.2827 13.7915C57.2425 13.7915 57.9498 13.5767 58.4044 13.1473C58.8591 12.6927 59.0864 12.0486 59.0864 11.215C59.0864 10.331 58.8844 9.6995 58.4802 9.32061C58.0761 8.91647 57.3436 8.7144 56.2827 8.7144C55.6765 8.7144 55.146 8.91647 54.6914 9.32061C54.2367 9.6995 54.0094 10.331 54.0094 11.215C54.0094 11.9728 54.2114 12.5917 54.6156 13.0716C55.045 13.5515 55.6007 13.7915 56.2827 13.7915ZM78.4853 14.7008C77.8791 14.7008 77.3992 14.5366 77.0456 14.2082C76.6919 13.8546 76.5151 13.3368 76.5151 12.6548C76.5151 11.9981 76.7172 11.5055 77.1213 11.1771C77.5507 10.8488 78.0812 10.6846 78.7126 10.6846C79.2936 10.6846 79.7356 10.8867 80.0387 11.2908C80.3671 11.6697 80.5313 12.1496 80.5313 12.7306C80.5313 13.3368 80.3545 13.8167 80.0009 14.1703C79.6472 14.524 79.142 14.7008 78.4853 14.7008ZM73.7114 47.8911L76.3636 45.0873C78.7126 46.8049 80.4303 48.1689 81.5164 49.1793C82.6025 50.1644 83.234 50.9474 83.4108 51.5284C83.6129 52.0841 83.5371 52.5892 83.1835 53.0439C82.7541 53.5996 82.211 53.8396 81.5543 53.7638C80.9228 53.6627 79.9882 53.1576 78.7505 52.2482C77.5381 51.3137 75.8584 49.8613 73.7114 47.8911ZM67.8765 50.9979L72.2716 49.0277C73.8377 52.3619 74.9491 54.9131 75.6058 56.6812C76.2625 58.4746 76.5404 59.7502 76.4393 60.5079C76.3636 61.2657 75.9847 61.7835 75.3027 62.0613C74.5702 62.3645 73.8882 62.2508 73.2567 61.7204C72.6505 61.2152 71.9306 60.1164 71.0971 58.4241C70.2888 56.7317 69.2153 54.2563 67.8765 50.9979ZM61.0566 51.8315L65.4517 51.983C65.7043 55.5445 65.8306 58.2472 65.8306 60.0911C65.8558 61.9351 65.6917 63.1854 65.338 63.8421C64.9844 64.5241 64.3655 64.8904 63.4815 64.9409C62.749 64.9661 62.168 64.6504 61.7386 63.9937C61.3092 63.3622 61.0314 62.0992 60.9051 60.2048C60.804 58.3356 60.8546 55.5445 61.0566 51.8315ZM55.2976 50.3917C55.4239 50.2402 55.5502 50.0886 55.6765 49.937C55.828 49.7855 55.9543 49.6592 56.0553 49.5582C56.4848 49.1288 56.9268 48.9267 57.3814 48.9519C57.8361 48.9772 58.2276 49.1288 58.556 49.4066C58.9854 49.6592 59.2759 50.0381 59.4274 50.5433C59.6042 51.0232 59.5411 51.4526 59.238 51.8315C59.1622 51.9325 59.0738 52.0588 58.9728 52.2103C58.8717 52.3366 58.7833 52.4629 58.7075 52.5892C57.091 54.711 55.8028 56.1886 54.8429 57.0222C53.8831 57.881 53.1253 58.3357 52.5696 58.3862C52.0392 58.4367 51.6098 58.323 51.2814 58.0452C50.9783 57.7673 50.8015 57.3758 50.751 56.8706C50.7257 56.3655 51.0288 55.6077 51.6603 54.5973C52.317 53.587 53.5294 52.1851 55.2976 50.3917ZM53.9336 43.3444L55.0703 46.906C52.9738 47.9163 51.3193 48.6615 50.1069 49.1414C48.9197 49.596 48.023 49.7855 47.4168 49.7097C46.8358 49.6339 46.4064 49.2803 46.1286 48.6488C45.8255 47.8911 45.876 47.247 46.2801 46.7165C46.7095 46.1608 47.5431 45.6304 48.7808 45.1252C50.0437 44.62 51.7613 44.0264 53.9336 43.3444Z" fill="url(#paint9_linear_1_657)"/>
<path d="M3.78884 48.1182C4.26876 46.2491 4.87498 43.9252 5.60749 41.1468C6.34 38.343 7.13565 35.3625 7.99446 32.2051C8.85326 29.0225 9.69944 25.9535 10.533 22.9982C12.0233 23.6044 13.3873 24.0717 14.6249 24.4001C15.8879 24.7032 16.8983 24.7411 17.656 24.5137C18.4138 24.2864 18.7927 23.6676 18.7927 22.6572C18.7927 21.9752 18.3001 21.3185 17.315 20.687C16.3552 20.0555 14.486 19.3988 11.7075 18.7168C11.9349 17.8327 12.1622 16.9992 12.3895 16.2162C12.6168 15.4079 12.8316 14.6501 13.0336 13.9428C14.7765 14.6754 16.431 15.2689 17.997 15.7236C19.5631 16.1783 20.8386 16.3172 21.8237 16.1404C22.8088 15.9636 23.3014 15.3068 23.3014 14.1702C23.3014 13.3366 22.6699 12.5789 21.407 11.8969C20.144 11.2149 17.7697 10.4824 14.2839 9.69934C14.3092 9.5983 14.3218 9.52252 14.3218 9.47201C14.3471 9.39623 14.3723 9.30782 14.3976 9.20679C15.0543 7.00926 16.2541 5.30428 17.997 4.09185C19.7651 2.87942 22.1774 2.29846 25.2337 2.34898C28.3658 2.34898 30.8159 3.0436 32.5841 4.43284C34.3522 5.79683 35.4636 7.98173 35.9183 10.9875C35.9688 11.3664 36.0193 11.7706 36.0698 12.2C36.1456 12.6041 36.2087 13.0335 36.2593 13.4882C36.3098 13.8923 36.3603 14.3091 36.4108 14.7385C36.4866 15.1679 36.5497 15.6099 36.6003 16.0646C36.6508 16.3172 36.6887 16.5698 36.7139 16.8224C36.7644 17.075 36.8023 17.3275 36.8276 17.5801C36.8781 17.8327 36.916 18.0979 36.9412 18.3758C37.017 18.9568 37.0928 19.5503 37.1686 20.1566C37.2444 20.7628 37.3328 21.3816 37.4338 22.0131C37.4843 22.392 37.5348 22.7835 37.5853 23.1876C37.6611 23.5665 37.7116 23.9707 37.7369 24.4001C37.7874 24.7032 37.8253 25.0189 37.8506 25.3473C37.9011 25.6504 37.9516 25.9661 38.0021 26.2945C38.0526 26.5976 38.0905 26.9133 38.1158 27.2417C38.4189 29.4392 38.7094 31.6746 38.9872 33.948C39.2903 36.2213 39.5808 38.4567 39.8587 40.6542C40.1365 42.8517 40.3891 44.9356 40.6164 46.9058C40.869 48.876 41.0963 50.6694 41.2984 52.286C41.4752 53.6752 41.2605 54.8371 40.6543 55.7717C40.0481 56.7315 39.1767 57.2115 38.04 57.2115C37.0549 57.2115 36.2087 56.8326 35.5015 56.0748C34.8195 55.3423 34.4027 54.2562 34.2512 52.8164C33.7712 48.2698 33.3418 43.5464 32.963 38.6461C32.5841 33.7206 32.1673 28.7446 31.7126 23.7181C31.5611 21.9752 31.2453 20.7628 30.7654 20.0808C30.2855 19.3988 29.4898 19.0578 28.3785 19.0578C27.3681 19.0578 26.4083 19.3609 25.4989 19.9671C24.6149 20.5733 23.6171 22.0005 22.5057 24.2485C20.3587 28.5931 18.2243 33.0386 16.1026 37.5852C14.0061 42.1319 11.9475 46.5017 9.92677 50.6947C9.4216 51.7303 8.8659 52.488 8.25968 52.968C7.65347 53.4226 6.97147 53.65 6.2137 53.65C5.12757 53.65 4.34454 53.1321 3.86462 52.0965C3.40996 51.0609 3.38469 49.7348 3.78884 48.1182ZM12.579 41.9045L14.0187 36.5244C17.2519 36.3981 20.4724 36.2718 23.6803 36.1455C26.8882 36.0192 29.9319 35.9182 32.8114 35.8424C34.0238 35.7919 35.0216 35.9813 35.8046 36.4107C36.5876 36.8148 36.9791 37.4842 36.9791 38.4188C36.9791 39.4291 36.7013 40.1617 36.1456 40.6163C35.6152 41.071 34.8321 41.3236 33.7965 41.3741C30.2602 41.5256 26.7619 41.6393 23.3014 41.7151C19.8409 41.7909 16.2668 41.854 12.579 41.9045ZM38.1158 49.0276C37.4338 49.0276 36.8276 48.8129 36.2971 48.3835C35.792 47.9541 35.5394 47.3605 35.5394 46.6027C35.5394 45.8449 35.7667 45.264 36.2214 44.8598C36.7013 44.4557 37.3328 44.2536 38.1158 44.2536C38.2673 44.2536 38.482 44.2536 38.7599 44.2536C39.0377 44.2536 39.303 44.2536 39.5555 44.2536V49.0276C39.3282 49.0528 39.0883 49.0654 38.8357 49.0654C38.5831 49.0402 38.3431 49.0276 38.1158 49.0276ZM8.60068 38.7598C6.32737 38.1031 4.57187 37.5221 3.33418 37.0169C2.09649 36.5117 1.23768 36.0192 0.757762 35.5393C0.252582 35.0341 0 34.4658 0 33.8343C0 32.6219 0.492546 31.902 1.47765 31.6746C2.43749 31.4473 3.70044 31.5484 5.26649 31.9778C6.83255 32.4072 8.47438 33.0134 10.192 33.7964L8.60068 38.7598ZM10.7603 43.1927C10.1288 42.9907 9.58578 42.776 9.13112 42.5486C8.70171 42.3213 8.37335 42.0561 8.14602 41.753C7.91869 41.4499 7.80502 41.071 7.80502 40.6163C7.80502 39.6565 7.98183 38.8987 8.33546 38.343C8.68908 37.7873 9.19427 37.4463 9.851 37.32C10.533 37.1937 11.3665 37.3074 12.3516 37.661L10.7603 43.1927ZM34.5543 32.9629L34.0238 27.7342C34.9332 27.6332 35.6783 27.6332 36.2593 27.7342C36.8402 27.8353 37.2696 28.1131 37.5475 28.5678C37.8253 28.9972 37.9642 29.6792 37.9642 30.6138C37.9642 31.5231 37.6738 32.104 37.0928 32.3566C36.5118 32.6092 35.6657 32.8113 34.5543 32.9629ZM37.2443 41.1468L36.9791 35.615C39.1009 35.5393 40.768 35.514 41.9804 35.5393C43.2181 35.5645 44.0895 35.7919 44.5947 36.2213C45.1251 36.6254 45.3904 37.3958 45.3904 38.5325C45.3904 39.5681 44.8347 40.2627 43.7233 40.6163C42.6371 40.9447 40.4775 41.1215 37.2443 41.1468Z" fill="url(#paint10_linear_1_657)"/>
<defs>
<linearGradient id="paint0_linear_1_657" x1="186.209" y1="74.7435" x2="222.604" y2="95.5775" gradientUnits="userSpaceOnUse">
<stop stop-color="#D9259A"/>
<stop offset="1" stop-color="#412787"/>
</linearGradient>
<linearGradient id="paint1_linear_1_657" x1="147.913" y1="72.9845" x2="185.16" y2="103.27" gradientUnits="userSpaceOnUse">
<stop stop-color="#D9259A"/>
<stop offset="1" stop-color="#412787"/>
</linearGradient>
<linearGradient id="paint2_linear_1_657" x1="104.82" y1="73.1762" x2="142.513" y2="108.286" gradientUnits="userSpaceOnUse">
<stop stop-color="#D9259A"/>
<stop offset="1" stop-color="#412787"/>
</linearGradient>
<linearGradient id="paint3_linear_1_657" x1="75.0088" y1="74.3364" x2="109.469" y2="100.988" gradientUnits="userSpaceOnUse">
<stop stop-color="#D9259A"/>
<stop offset="1" stop-color="#412787"/>
</linearGradient>
<linearGradient id="paint4_linear_1_657" x1="35.1349" y1="74.2101" x2="70.7268" y2="112.012" gradientUnits="userSpaceOnUse">
<stop stop-color="#D9259A"/>
<stop offset="1" stop-color="#412787"/>
</linearGradient>
<linearGradient id="paint5_linear_1_657" x1="8.1728" y1="74.7685" x2="42.5271" y2="96.1607" gradientUnits="userSpaceOnUse">
<stop stop-color="#D9259A"/>
<stop offset="1" stop-color="#412787"/>
</linearGradient>
<linearGradient id="paint6_linear_1_657" x1="168.534" y1="0.8684" x2="213.364" y2="40.5916" gradientUnits="userSpaceOnUse">
<stop stop-color="#D9259A"/>
<stop offset="1" stop-color="#412787"/>
</linearGradient>
<linearGradient id="paint7_linear_1_657" x1="123.388" y1="-0.658928" x2="168.395" y2="35.9358" gradientUnits="userSpaceOnUse">
<stop stop-color="#D9259A"/>
<stop offset="1" stop-color="#412787"/>
</linearGradient>
<linearGradient id="paint8_linear_1_657" x1="86.4304" y1="0.974689" x2="128.07" y2="33.1788" gradientUnits="userSpaceOnUse">
<stop stop-color="#D9259A"/>
<stop offset="1" stop-color="#412787"/>
</linearGradient>
<linearGradient id="paint9_linear_1_657" x1="49.2876" y1="0.992158" x2="97.7817" y2="33.5712" gradientUnits="userSpaceOnUse">
<stop stop-color="#D9259A"/>
<stop offset="1" stop-color="#412787"/>
</linearGradient>
<linearGradient id="paint10_linear_1_657" x1="4.05013" y1="1.69418" x2="49.4201" y2="44.093" gradientUnits="userSpaceOnUse">
<stop stop-color="#D9259A"/>
<stop offset="1" stop-color="#412787"/>
</linearGradient>
</defs>
</svg>
