<svg width="191" height="191" viewBox="0 0 191 191" fill="none" xmlns="http://www.w3.org/2000/svg">
<g clip-path="url(#clip0_1_1649)">
<path d="M182.794 99.6034C182.794 150.08 141.874 191 91.3965 191C40.9201 191 0.00012207 150.08 0.00012207 99.6034C0.00012207 49.1256 40.9201 8.20703 91.3965 8.20703C141.874 8.20703 182.794 49.1256 182.794 99.6034Z" fill="#542EA3"/>
<path d="M10.0082 141.229C8.31788 119.305 15.8342 96.7983 32.5659 80.0665C41.2247 71.4078 52.8124 65.2627 65.1973 62.7607C96.3 56.4816 121.597 74.9372 121.597 103.448C121.597 115.12 114.712 124.976 103.18 129.813C101.244 130.625 100.335 132.85 101.145 134.785C101.957 136.72 104.182 137.631 106.117 136.818C120.351 130.849 129.192 118.062 129.192 103.448C129.192 86.6561 121.822 75.5885 115.639 69.2584C92.2723 45.3455 50.7446 51.1467 27.1946 74.6953C13.6076 88.2823 5.55646 105.34 3.03986 123.043C4.72294 129.402 7.06905 135.493 10.0082 141.229Z" fill="#B26CDE"/>
<path d="M56.419 65.1884C54.6208 64.1509 53.5206 62.0539 53.9694 59.8098C54.1414 58.9763 54.4984 58.2492 54.9793 57.6459C44.6302 61.1257 34.9397 66.9487 27.1946 74.6953C13.6076 88.2823 5.55646 105.34 3.03986 123.043C4.72294 129.402 7.06905 135.493 10.0082 141.229C8.31788 119.305 15.8342 96.7983 32.5659 80.0665C39.1394 73.4931 47.4018 68.3695 56.419 65.1884Z" fill="#9D4AD3"/>
<path d="M104.817 188.077C55.6073 188.077 23.7964 146.24 33.6093 111.248C35.9976 102.728 41.8979 90.8106 56.4394 82.4156C65.2424 77.3328 75.4619 76.3099 85.2121 79.5361C87.2026 80.1948 88.2839 82.3427 87.6252 84.3347C86.9666 86.3268 84.8172 87.4065 82.8266 86.7479C77.4029 84.9541 69.0822 83.8874 60.2369 88.9949C21.204 111.529 41.162 166.173 84.5053 177.787C104.616 183.177 125.622 180.41 143.654 170C204.054 135.127 193.954 37.838 124.869 7.27151C122.951 6.42341 122.084 4.1793 122.932 2.26161C123.782 0.342461 126.026 -0.523123 127.942 0.324975C202.557 33.3381 213.351 138.533 147.451 176.579C134.271 184.189 119.64 188.075 104.817 188.077Z" fill="#B26CDE"/>
<path d="M122.439 180.463C122.626 179.558 123.033 178.78 123.576 178.149C110.875 181.343 97.5037 181.271 84.5039 177.787C41.162 166.173 21.204 111.529 60.2369 88.9935C62.2231 87.8467 64.183 87.0131 66.0891 86.4273C64.0344 85.4976 62.7185 83.2448 63.2009 80.8244C63.3247 80.2254 63.5433 79.679 63.8348 79.1952C61.2919 79.9719 58.8132 81.0444 56.4394 82.4156C41.8979 90.8106 35.9976 102.728 33.6093 111.248C23.7964 146.24 55.6073 188.077 104.817 188.077C111.513 188.077 118.168 187.281 124.669 185.709C123.002 184.632 122.01 182.612 122.439 180.463Z" fill="#9D4AD3"/>
<path d="M109.188 22.5051C96.1557 14.9801 82.2714 11.3895 68.4687 11.1083C59.211 13.4996 50.5246 17.3087 42.6498 22.2836C63.1222 16.159 85.3928 17.5375 105.39 29.083C134.294 45.771 151.397 80.5532 140.379 113.326C130.198 143.608 101.415 155.955 76.9439 141.826C70.9897 138.389 66.7142 133.147 64.5794 126.67C63.9237 124.676 61.7757 123.592 59.7837 124.251C57.7917 124.906 56.709 127.053 57.3647 129.046C64.2544 149.96 89.3039 158.928 109.53 153.761C141.917 145.485 157.666 106.623 149.045 74.4475C143.132 52.3765 128.977 33.9297 109.188 22.5051Z" fill="#B26CDE"/>
<path d="M110.253 146.655C110.333 146.266 110.455 145.902 110.608 145.56C99.9139 149.185 87.9895 148.203 76.9438 141.826C70.9897 138.389 66.7142 133.147 64.5809 126.668C63.9236 124.676 61.7757 123.592 59.7837 124.251C57.7917 124.906 56.709 127.053 57.3647 129.045C64.2544 149.96 89.3054 158.928 109.531 153.761C110.965 153.394 112.364 152.965 113.733 152.481C111.347 151.745 109.725 149.3 110.253 146.655Z" fill="#9D4AD3"/>
<path d="M111.42 51.0082C109.263 51.0082 107.623 49.2319 107.623 47.2093C107.623 44.834 109.827 43.0052 112.165 43.4875C114.055 43.881 115.218 45.5058 115.218 47.2093C115.218 49.3179 113.513 51.0082 111.42 51.0082Z" fill="#4374D3"/>
<path d="M157.372 137.619C154.628 137.619 152.308 135.388 152.308 132.555C152.308 130.203 153.931 128.092 156.379 127.588C159.457 126.971 162.436 129.322 162.436 132.555C162.436 135.339 160.168 137.619 157.372 137.619Z" fill="#FADDA0"/>
<path d="M52.6463 80.5474C50.5217 80.5474 48.8473 78.8148 48.8473 76.7484C48.8473 75.0071 50.0495 73.4129 51.906 73.0267C54.2069 72.5633 56.4438 74.3265 56.4438 76.7484C56.4438 78.8745 54.7141 80.5474 52.6463 80.5474Z" fill="#FD7E31"/>
<path d="M91.3921 44.0049C88.2373 44.0049 85.7906 41.1152 86.4245 37.9473C87.0846 34.7385 90.4493 33.0627 93.3259 34.2605C94.939 34.9323 96.0188 36.3181 96.3554 37.9473C96.9835 41.0992 94.5572 44.0049 91.3921 44.0049Z" fill="#D7F9B7"/>
<path d="M107.905 30.6014C107.264 27.5762 109.446 24.7376 112.481 24.5088C99.1212 15.9899 84.1352 11.4274 68.4672 11.1083C59.211 13.4996 50.5246 17.3087 42.6498 22.2836C64.8446 15.6446 88.0566 18.1189 107.905 30.6014Z" fill="#C78FE8"/>
<path d="M146.459 57.7348C146.459 62.2259 142.819 65.866 138.327 65.866C133.836 65.866 130.196 62.2259 130.196 57.7348C130.196 53.2451 133.836 49.605 138.327 49.605C142.819 49.605 146.459 53.2451 146.459 57.7348Z" fill="#A2EC00"/>
<path d="M141.599 59.3246C138.915 59.3246 136.739 57.149 136.739 54.4648C136.739 52.2761 138.185 50.4268 140.174 49.8177C139.581 49.6793 138.963 49.605 138.327 49.605C133.836 49.605 130.196 53.2451 130.196 57.7348C130.196 62.2259 133.836 65.866 138.327 65.866C142.819 65.866 146.459 62.2259 146.459 57.7348C146.459 57.0994 146.383 56.483 146.245 55.8885C145.635 57.8776 143.786 59.3246 141.599 59.3246Z" fill="#00C82F"/>
<path d="M27.7877 94.0558C27.7877 100.084 22.9017 104.97 16.8732 104.97C10.8462 104.97 5.95868 100.084 5.95868 94.0558C5.95868 88.0287 10.8462 83.1412 16.8732 83.1412C22.9017 83.1412 27.7877 88.0287 27.7877 94.0558Z" fill="#FACE7A"/>
<path d="M21.2711 96.1775C17.6718 96.1775 14.753 93.2587 14.753 89.6593C14.753 86.726 16.6911 84.2458 19.3563 83.4283C18.5577 83.2418 17.7271 83.1412 16.8732 83.1412C10.8462 83.1412 5.95868 88.0287 5.95868 94.0558C5.95868 100.084 10.8462 104.97 16.8732 104.97C22.9017 104.97 27.7892 100.084 27.7892 94.0558C27.7892 93.2018 27.6872 92.3712 27.5021 91.5741C26.6832 94.2394 24.2044 96.1775 21.2711 96.1775Z" fill="#FBB362"/>
<path d="M172.333 163.451C172.333 170.596 166.541 176.388 159.396 176.388C152.25 176.388 146.457 170.596 146.457 163.451C146.457 156.305 152.25 150.513 159.396 150.513C166.541 150.513 172.333 156.305 172.333 163.451Z" fill="#F948B4"/>
<path d="M164.525 166.128C160.213 166.128 156.718 162.632 156.718 158.32C156.718 154.787 159.068 151.804 162.29 150.842C161.359 150.629 160.391 150.513 159.396 150.513C152.251 150.513 146.459 156.305 146.459 163.451C146.459 170.596 152.251 176.388 159.396 176.388C166.541 176.388 172.333 170.596 172.333 163.451C172.333 162.456 172.216 161.487 172.004 160.556C171.042 163.778 168.06 166.128 164.525 166.128Z" fill="#F6159C"/>
<path d="M112.79 96.0945C103.646 80.2575 83.3935 74.8323 67.5565 83.9763C51.7195 93.1203 46.2928 113.371 55.4369 129.208C64.5809 145.047 84.8332 150.472 100.67 141.328C116.507 132.184 121.934 111.933 112.79 96.0945Z" fill="#FC9949"/>
<path d="M106.117 136.818C67.2884 131.288 88.6161 107.655 72.4629 97.5808C63.3175 91.8773 70.6327 82.4083 70.6327 82.4083C69.5937 82.8732 68.5678 83.3949 67.5594 83.9777C51.721 93.1218 46.2943 113.373 55.4383 129.211C64.5838 145.05 84.8347 150.476 100.673 141.332C102.881 140.057 104.886 138.565 106.678 136.901C106.492 136.873 106.307 136.845 106.117 136.818Z" fill="#FD7E31"/>
<path d="M90.7699 80.2224C85.1523 82.5846 79.7636 86.3092 76.4032 92.1803C70.3092 102.822 58.8555 107.644 51.1352 109.763C50.5814 116.02 51.7982 122.489 54.9953 128.396C58.5815 123.958 70.7318 110.604 87.0744 110.662C98.3649 110.703 107.303 102.865 112.855 96.2109C107.982 87.6921 99.8469 82.0891 90.7699 80.2224Z" fill="#FBB362"/>
<path d="M54.9953 128.396C58.0263 124.644 67.1761 114.525 79.8029 111.518C79.1428 106.126 78.0251 101.049 72.4629 97.5808C66.1386 104.538 57.4055 108.042 51.1351 109.763C50.5799 116.02 51.7982 122.489 54.9953 128.396Z" fill="#FC9949"/>
<path d="M116.988 116.643C111.598 121.664 104.443 126.084 95.959 126.053C82.5002 126.005 71.8844 135.054 66.5539 140.729C87.1604 153.595 114.053 140.672 116.988 116.643Z" fill="#FD7E31"/>
<path d="M106.117 136.818C94.6796 135.189 88.4631 131.989 84.9687 128.028C76.7588 131.001 70.3296 136.71 66.5539 140.729C80.071 149.168 96.2927 146.511 106.684 136.902C106.496 136.873 106.31 136.845 106.117 136.818Z" fill="#FC5D1F"/>
<path d="M124.869 7.27152C150.266 18.5095 167.692 38.7648 176.573 61.6212C177.34 59.6131 179.28 58.1836 181.557 58.1836C182.248 58.1836 182.907 58.3191 183.513 58.5581C173.911 34.0478 155.18 12.3761 127.942 0.324987C126.026 -0.521654 123.782 0.343931 122.932 2.26162C122.084 4.17931 122.951 6.42342 124.869 7.27152Z" fill="#C78FE8"/>
</g>
<defs>
<clipPath id="clip0_1_1649">
<rect width="191" height="191" fill="white"/>
</clipPath>
</defs>
</svg>
