<svg width="89" height="89" viewBox="0 0 89 89" fill="none" xmlns="http://www.w3.org/2000/svg">
<g id="Group 6">
<path id="Union" fill-rule="evenodd" clip-rule="evenodd" d="M22.5 0.5C34.6503 0.5 44.5 10.3497 44.5 22.5C44.5 10.3497 54.3497 0.5 66.5 0.5C78.6503 0.5 88.5 10.3497 88.5 22.5C88.5 34.6503 78.6503 44.5 66.5 44.5C78.6503 44.5 88.5 54.3497 88.5 66.5C88.5 78.6503 78.6503 88.5 66.5 88.5C54.3497 88.5 44.5 78.6503 44.5 66.5C44.5 78.6503 34.6503 88.5 22.5 88.5C10.3497 88.5 0.5 78.6503 0.5 66.5C0.5 54.3497 10.3497 44.5 22.5 44.5C10.3497 44.5 0.5 34.6503 0.5 22.5C0.5 10.3497 10.3497 0.5 22.5 0.5Z" fill="url(#paint0_linear_326_201)"/>
<g id="check">
<mask id="mask0_326_201" style="mask-type:alpha" maskUnits="userSpaceOnUse" x="24" y="24" width="41" height="41">
<rect id="Bounding box" x="24.5" y="24.5" width="40" height="40" fill="#D9D9D9"/>
</mask>
<g mask="url(#mask0_326_201)">
<path id="check_2" d="M40.417 54.5002L30.917 45.0002L33.292 42.6252L40.417 49.7502L55.7087 34.4585L58.0837 36.8335L40.417 54.5002Z" fill="white"/>
</g>
</g>
</g>
<defs>
<linearGradient id="paint0_linear_326_201" x1="45" y1="44.5444" x2="80.9989" y2="80.9989" gradientUnits="userSpaceOnUse">
<stop stop-color="#991C73"/>
<stop offset="1" stop-color="#221E72"/>
</linearGradient>
</defs>
</svg>
