<svg width="24" height="26" viewBox="0 0 24 26" fill="none" xmlns="http://www.w3.org/2000/svg">
<path d="M12.4013 12.3C15.3468 12.3 17.7347 9.91215 17.7347 6.96663C17.7347 4.02112 15.3468 1.6333 12.4013 1.6333C9.45581 1.6333 7.06799 4.02112 7.06799 6.96663C7.06799 9.91215 9.45581 12.3 12.4013 12.3Z" stroke="#9491AE" stroke-width="2"/>
<path d="M23.0594 20.5554L22.1737 20.6315L23.0594 20.5554ZM1.74335 20.5554L2.62899 20.6314L1.74335 20.5554ZM22.1402 22.5045L22.6093 23.2595L22.1402 22.5045ZM2.66251 22.5045L3.13156 21.7494L2.66251 22.5045ZM21.9893 17.0963L22.7856 16.7016L21.9893 17.0963ZM21.6711 21.7494C20.4034 22.537 17.5227 23.8554 12.4014 23.8554V25.6332C17.8463 25.6332 21.0531 24.2262 22.6093 23.2595L21.6711 21.7494ZM12.4014 23.8554C7.28003 23.8554 4.39935 22.537 3.13156 21.7494L2.19346 23.2595C3.74959 24.2262 6.95651 25.6332 12.4014 25.6332V23.8554ZM0.85772 20.4794C0.765986 21.5482 1.21028 22.6488 2.19346 23.2595L3.13156 21.7494C2.79334 21.5393 2.58633 21.1284 2.62899 20.6314L0.85772 20.4794ZM22.1737 20.6315C22.2164 21.1284 22.0094 21.5393 21.6711 21.7494L22.6093 23.2595C23.5925 22.6488 24.0367 21.5482 23.945 20.4794L22.1737 20.6315ZM21.1928 17.4911C21.6195 18.3519 22.0778 19.5137 22.1737 20.6315L23.945 20.4794C23.8211 19.0359 23.2509 17.64 22.7856 16.7016L21.1928 17.4911ZM2.62899 20.6314C2.72493 19.5137 3.18322 18.3519 3.60991 17.4911L2.01708 16.7016C1.55188 17.64 0.981622 19.0359 0.85772 20.4794L2.62899 20.6314ZM19.8644 14.9666H4.93831V16.7443H19.8644V14.9666ZM3.60991 17.4911C3.83238 17.0423 4.3297 16.7443 4.93831 16.7443V14.9666C3.76516 14.9666 2.58593 15.5539 2.01708 16.7016L3.60991 17.4911ZM22.7856 16.7016C22.2168 15.5539 21.0375 14.9666 19.8644 14.9666V16.7443C20.473 16.7443 20.9703 17.0423 21.1928 17.4911L22.7856 16.7016Z" fill="#9491AE"/>
</svg>
