<svg width="36" height="36" viewBox="0 0 36 36" fill="none" xmlns="http://www.w3.org/2000/svg">
<g filter="url(#filter0_d_1_505)">
<path d="M26.5978 10.2234C26.9394 9.60023 27.1218 8.89825 27.1218 8.16784C27.1218 7.74283 27.0601 7.32738 26.9415 6.93138C27.4596 6.85464 27.9582 6.61758 28.3561 6.21968C29.342 5.23379 29.342 3.62961 28.3561 2.64372C27.3703 1.65782 25.7661 1.65782 24.7801 2.64372C24.3822 3.04162 24.1452 3.54024 24.0684 4.05831C23.6724 3.93972 23.257 3.87803 22.832 3.87803C22.1015 3.87803 21.3996 4.06051 20.7764 4.40208L26.5978 10.2234Z" fill="white"/>
<path d="M18.0166 3.81261C17.515 3.90356 17.0532 4.14354 16.6851 4.51172C16.4322 4.76453 16.2403 5.06175 16.1149 5.38547L25.6143 14.8849C25.938 14.7595 26.2352 14.5675 26.488 14.3147C26.8561 13.9466 27.0961 13.4847 27.1871 12.9831L18.0166 3.81261Z" fill="white"/>
<path d="M15.7783 7.21935L13.077 8.11986L3.64507 17.5517C3.16747 18.0293 2.90442 18.6643 2.90442 19.3397C2.90442 20.0152 3.16747 20.6501 3.64507 21.1277L9.87203 27.3547C10.3496 27.8323 10.9846 28.0953 11.66 28.0953C12.3354 28.0953 12.9704 27.8323 13.448 27.3547L22.8799 17.9228L23.7804 15.2214L15.7783 7.21935ZM7.82852 21.0527L6.03542 19.2596L7.12061 18.1744L8.91371 19.9675L7.82852 21.0527ZM10.3193 18.5619L8.52625 16.7688L9.61144 15.6837L11.4045 17.4768L10.3193 18.5619ZM12.8101 16.0711L11.017 14.278L12.1022 13.1928L13.8953 14.9859L12.8101 16.0711ZM15.3009 13.5803L13.5078 11.7872L14.593 10.7021L16.3861 12.4951L15.3009 13.5803Z" fill="white"/>
</g>
<defs>
<filter id="filter0_d_1_505" x="0.904419" y="0.904297" width="34.1912" height="34.191" filterUnits="userSpaceOnUse" color-interpolation-filters="sRGB">
<feFlood flood-opacity="0" result="BackgroundImageFix"/>
<feColorMatrix in="SourceAlpha" type="matrix" values="0 0 0 0 0 0 0 0 0 0 0 0 0 0 0 0 0 0 127 0" result="hardAlpha"/>
<feOffset dx="2" dy="3"/>
<feGaussianBlur stdDeviation="2"/>
<feColorMatrix type="matrix" values="0 0 0 0 0 0 0 0 0 0 0 0 0 0 0 0 0 0 0.14 0"/>
<feBlend mode="color-burn" in2="BackgroundImageFix" result="effect1_dropShadow_1_505"/>
<feBlend mode="normal" in="SourceGraphic" in2="effect1_dropShadow_1_505" result="shape"/>
</filter>
</defs>
</svg>
