<svg width="18" height="21" viewBox="0 0 18 21" fill="none" xmlns="http://www.w3.org/2000/svg">
<g id="Group 2085662609">
<g id="Group 303">
<g id="Delete">
<path id="Delete_2" fill-rule="evenodd" clip-rule="evenodd" d="M17.2873 3.74276C17.6763 3.74276 18.0002 4.06576 18.0002 4.47676V4.85676C18.0002 5.25776 17.6763 5.59076 17.2873 5.59076H0.713861C0.323863 5.59076 0 5.25776 0 4.85676V4.47676C0 4.06576 0.323863 3.74276 0.713861 3.74276H3.6296C4.2219 3.74276 4.73735 3.32176 4.8706 2.72776L5.02329 2.04576C5.26059 1.11676 6.04156 0.499756 6.93535 0.499756H11.0648C11.9489 0.499756 12.7386 1.11676 12.9672 1.99676L13.1306 2.72676C13.2628 3.32176 13.7783 3.74276 14.3716 3.74276H17.2873ZM15.806 17.6343C16.1104 14.7973 16.6434 8.05731 16.6434 7.98931C16.6628 7.78331 16.5957 7.58831 16.4625 7.43131C16.3195 7.28431 16.1386 7.19731 15.9393 7.19731H2.06857C1.86822 7.19731 1.6776 7.28431 1.54533 7.43131C1.41112 7.58831 1.34498 7.78331 1.35471 7.98931C1.35649 8.00181 1.37562 8.23922 1.40759 8.63614C1.54962 10.3994 1.94521 15.3104 2.20084 17.6343C2.38173 19.3463 3.50504 20.4223 5.13214 20.4613C6.38772 20.4903 7.68123 20.5003 9.00391 20.5003C10.2498 20.5003 11.5151 20.4903 12.8096 20.4613C14.4931 20.4323 15.6154 19.3753 15.806 17.6343Z" fill="white"/>
</g>
</g>
</g>
</svg>
