<svg width="38" height="30" viewBox="0 0 38 30" fill="none" xmlns="http://www.w3.org/2000/svg">
<g filter="url(#filter0_d_1_515)">
<path d="M12.763 1.28571C14.2672 1.28571 15.6997 1.59794 17 2.16011C18.3003 1.598 19.7328 1.28571 21.237 1.28571C27.145 1.28571 31.9513 6.09212 31.9513 12C31.9513 17.9079 27.145 22.7143 21.2371 22.7143C19.7329 22.7143 18.3003 22.4021 17.0001 21.8399C15.6998 22.402 14.2673 22.7143 12.7631 22.7143C6.85511 22.7143 2.04869 17.9079 2.04869 12C2.04869 6.09212 6.85511 1.28571 12.763 1.28571ZM15.012 4.87234L21.8013 9.17894C21.0302 6.71334 19.276 4.67853 17 3.53451C16.2803 3.89627 15.6127 4.34693 15.012 4.87234ZM21.3997 15.8772C21.6121 15.406 21.7867 14.9145 21.9202 14.4064L12.4562 8.46122C12.2794 8.89842 12.1342 9.35157 12.0238 9.81805L21.3997 15.8772ZM11.8072 11.1615C11.7828 11.4379 11.7696 11.7174 11.7696 12C11.7696 12.4105 11.796 12.8149 11.8469 13.2117L19.7446 18.3881C20.1421 17.9541 20.4994 17.4828 20.8113 16.9804L11.8072 11.1615ZM22.1673 13.0901C22.2085 12.7323 22.2304 12.3687 22.2304 12C22.2304 11.6227 22.2076 11.2506 22.1644 10.8847L14.1093 5.77521C13.6903 6.2544 13.3189 6.77608 13.0022 7.33283L22.1673 13.0901ZM21.2371 21.4684C26.4579 21.4684 30.7054 17.2209 30.7054 12C30.7054 6.77913 26.4579 2.53165 21.2371 2.53165C20.278 2.53165 19.3519 2.67549 18.4788 2.942C21.4797 4.84269 23.4764 8.1924 23.4764 12.0001C23.4764 13.7737 23.0428 15.4478 22.2767 16.9226C22.2613 16.9946 22.2335 17.0651 22.1912 17.1305C22.1677 17.167 22.1402 17.1992 22.1109 17.229C21.2363 18.7867 19.984 20.1047 18.4787 21.0582C19.3519 21.3245 20.278 21.4684 21.2371 21.4684ZM18.8196 19.2715L12.2447 14.9622C13.0377 17.3642 14.7677 19.3435 17.0001 20.4655C17.6532 20.1372 18.2633 19.7357 18.8196 19.2715ZM12.763 21.4684C13.7221 21.4684 14.6482 21.3245 15.5213 21.0581C12.5203 19.1574 10.5236 15.8077 10.5236 12C10.5236 11.3195 10.5881 10.654 10.7099 10.0084C10.7112 10.0003 10.713 9.99229 10.7146 9.98419C11.2798 7.0277 13.0633 4.49874 15.5213 2.94194C14.6482 2.67549 13.7221 2.53165 12.763 2.53165C7.54218 2.53165 3.29464 6.77913 3.29464 12C3.29464 17.2209 7.54218 21.4684 12.763 21.4684Z" fill="white"/>
</g>
<defs>
<filter id="filter0_d_1_515" x="0.0487061" y="0.285706" width="37.9026" height="29.4286" filterUnits="userSpaceOnUse" color-interpolation-filters="sRGB">
<feFlood flood-opacity="0" result="BackgroundImageFix"/>
<feColorMatrix in="SourceAlpha" type="matrix" values="0 0 0 0 0 0 0 0 0 0 0 0 0 0 0 0 0 0 127 0" result="hardAlpha"/>
<feOffset dx="2" dy="3"/>
<feGaussianBlur stdDeviation="2"/>
<feColorMatrix type="matrix" values="0 0 0 0 0 0 0 0 0 0 0 0 0 0 0 0 0 0 0.14 0"/>
<feBlend mode="color-burn" in2="BackgroundImageFix" result="effect1_dropShadow_1_515"/>
<feBlend mode="normal" in="SourceGraphic" in2="effect1_dropShadow_1_515" result="shape"/>
</filter>
</defs>
</svg>
