<svg width="38" height="38" viewBox="0 0 38 38" fill="none" xmlns="http://www.w3.org/2000/svg">
<g filter="url(#filter0_d_1_519)">
<path d="M14.6731 10.0476C15.5088 10.0476 16.3047 10.221 17.027 10.5333C17.7494 10.2211 18.5452 10.0476 19.3809 10.0476C22.6631 10.0476 25.3333 12.7178 25.3333 15.9999C25.3333 19.2821 22.6631 21.9523 19.3809 21.9523C18.5453 21.9523 17.7494 21.7788 17.0271 21.4665C16.3047 21.7788 15.5089 21.9523 14.6732 21.9523C11.391 21.9523 8.72077 19.2821 8.72077 15.9999C8.72077 12.7178 11.391 10.0476 14.6731 10.0476ZM15.9226 12.0401L19.6944 14.4327C19.266 13.0629 18.2914 11.9325 17.027 11.2969C16.6272 11.4979 16.2563 11.7482 15.9226 12.0401ZM19.4713 18.1539C19.5893 17.8922 19.6863 17.6191 19.7605 17.3368L14.5027 14.0339C14.4045 14.2768 14.3238 14.5286 14.2625 14.7877L19.4713 18.1539ZM14.1421 15.5341C14.1286 15.6876 14.1213 15.8429 14.1213 15.9999C14.1213 16.228 14.1359 16.4527 14.1642 16.6731L18.5518 19.5489C18.7726 19.3077 18.9711 19.0459 19.1444 18.7668L14.1421 15.5341ZM19.8977 16.6056C19.9206 16.4068 19.9328 16.2047 19.9328 15.9999C19.9328 15.7903 19.9201 15.5836 19.8961 15.3803L15.4211 12.5417C15.1883 12.8079 14.982 13.0978 14.806 13.4071L19.8977 16.6056ZM19.3809 21.2601C22.2814 21.2601 24.6411 18.9004 24.6411 15.9999C24.6411 13.0995 22.2814 10.7397 19.3809 10.7397C18.8481 10.7397 18.3336 10.8197 17.8485 10.9677C19.5157 12.0237 20.625 13.8846 20.625 16C20.625 16.9853 20.3841 17.9154 19.9585 18.7347C19.95 18.7747 19.9345 18.8138 19.911 18.8502C19.8979 18.8705 19.8827 18.8884 19.8664 18.9049C19.3805 19.7703 18.6848 20.5025 17.8485 21.0322C18.3336 21.1802 18.8481 21.2601 19.3809 21.2601ZM18.0379 20.0396L14.3852 17.6456C14.8258 18.98 15.7869 20.0796 17.0271 20.703C17.3899 20.5206 17.7289 20.2975 18.0379 20.0396ZM14.6731 21.2601C15.206 21.2601 15.7205 21.1802 16.2055 21.0322C14.5383 19.9762 13.429 18.1153 13.429 15.9999C13.429 15.6219 13.4649 15.2522 13.5325 14.8935C13.5333 14.889 13.5342 14.8845 13.5351 14.88C13.8491 13.2375 14.84 11.8326 16.2055 10.9677C15.7205 10.8197 15.206 10.7397 14.6731 10.7397C11.7727 10.7397 9.41296 13.0995 9.41296 15.9999C9.41296 18.9004 11.7727 21.2601 14.6731 21.2601Z" fill="white"/>
<path d="M30.9881 15.1069H28.998C28.5507 9.16355 23.8272 4.43926 17.8839 3.99133V2.01186C17.8839 1.5187 17.4839 1.11899 16.991 1.11899C16.4978 1.11899 16.0981 1.5187 16.0981 2.01186V3.99133C10.1546 4.43926 5.43081 9.16355 4.98342 15.1069H3.01186C2.5187 15.1069 2.11899 15.5068 2.11899 15.9997C2.11899 16.4929 2.5187 16.8926 3.01186 16.8926H4.98342C5.43081 22.8359 10.1546 27.5602 16.0979 28.0081V29.9881C16.0979 30.4813 16.4976 30.881 16.9907 30.881C17.4836 30.881 17.8833 30.4813 17.8833 29.9881V28.0081C23.8269 27.5605 28.5507 22.8362 28.998 16.8926H30.9881C31.4813 16.8926 31.881 16.4929 31.881 15.9997C31.881 15.5068 31.4813 15.1069 30.9881 15.1069ZM16.9907 26.2671C11.3204 26.2668 6.72394 21.6697 6.72394 15.9995C6.72421 10.3289 11.3213 5.73238 16.9916 5.73238C22.6621 5.73238 27.2589 10.3294 27.2589 15.9997C27.2521 21.6678 22.6588 26.2608 16.9907 26.2671Z" fill="white"/>
</g>
<defs>
<filter id="filter0_d_1_519" x="0.118988" y="0.118988" width="37.762" height="37.762" filterUnits="userSpaceOnUse" color-interpolation-filters="sRGB">
<feFlood flood-opacity="0" result="BackgroundImageFix"/>
<feColorMatrix in="SourceAlpha" type="matrix" values="0 0 0 0 0 0 0 0 0 0 0 0 0 0 0 0 0 0 127 0" result="hardAlpha"/>
<feOffset dx="2" dy="3"/>
<feGaussianBlur stdDeviation="2"/>
<feColorMatrix type="matrix" values="0 0 0 0 0 0 0 0 0 0 0 0 0 0 0 0 0 0 0.14 0"/>
<feBlend mode="color-burn" in2="BackgroundImageFix" result="effect1_dropShadow_1_519"/>
<feBlend mode="normal" in="SourceGraphic" in2="effect1_dropShadow_1_519" result="shape"/>
</filter>
</defs>
</svg>
