<svg width="20" height="21" viewBox="0 0 20 21" fill="none" xmlns="http://www.w3.org/2000/svg">
<g id="Edit">
<path id="Edit_2" fill-rule="evenodd" clip-rule="evenodd" d="M7.08489 19.4199L16.8475 6.79493C17.3781 6.11412 17.5668 5.327 17.3899 4.52554C17.2366 3.79695 16.7886 3.10419 16.1165 2.57865L14.4776 1.27674C13.051 0.142044 11.2824 0.261485 10.2684 1.5634L9.17183 2.98594C9.03034 3.16391 9.06571 3.42668 9.24257 3.57001C9.24257 3.57001 12.0134 5.79162 12.0723 5.8394C12.261 6.01856 12.4025 6.25745 12.4378 6.5441C12.4968 7.10548 12.1077 7.63102 11.53 7.70269C11.2588 7.73852 10.9994 7.65491 10.8107 7.49964L7.89844 5.18247C7.75695 5.07617 7.54472 5.09886 7.42682 5.24219L0.505709 14.2003C0.0576649 14.7617 -0.0956134 15.4903 0.0576649 16.195L0.941963 20.029C0.989126 20.2321 1.16599 20.3754 1.37822 20.3754L5.26913 20.3276C5.97657 20.3157 6.63684 19.9932 7.08489 19.4199ZM12.533 18.2258H18.8775C19.4965 18.2258 20 18.7358 20 19.3629C20 19.9912 19.4965 20.5 18.8775 20.5H12.533C11.914 20.5 11.4105 19.9912 11.4105 19.3629C11.4105 18.7358 11.914 18.2258 12.533 18.2258Z" fill="white"/>
</g>
</svg>
