<svg width="19" height="15" viewBox="0 0 19 15" fill="none" xmlns="http://www.w3.org/2000/svg">
<g id="Message">
<path id="Message_2" fill-rule="evenodd" clip-rule="evenodd" d="M13.9451 0C15.152 0 16.313 0.436471 17.1671 1.21965C18.0221 2.00118 18.5 3.05529 18.5 4.15882V10.6647C18.5 12.9624 16.457 14.8235 13.9451 14.8235H5.054C2.5421 14.8235 0.5 12.9624 0.5 10.6647V4.15882C0.5 1.86118 2.5331 0 5.054 0H13.9451ZM15.3771 5.38587L15.4491 5.31999C15.6642 5.08117 15.6642 4.73528 15.4392 4.49646C15.3141 4.37375 15.1422 4.29881 14.9631 4.28234C14.7741 4.27328 14.5941 4.33175 14.4582 4.44705L10.4001 7.41176C9.87814 7.80787 9.13024 7.80787 8.60014 7.41176L4.55014 4.44705C4.27024 4.25764 3.88324 4.28234 3.65014 4.5047C3.40714 4.72705 3.38014 5.08117 3.58624 5.32823L3.70414 5.43528L7.79914 8.35881C8.30314 8.72117 8.91424 8.91881 9.55414 8.91881C10.1922 8.91881 10.8141 8.72117 11.3172 8.35881L15.3771 5.38587Z" fill="black"/>
</g>
</svg>
