<svg width="155" height="171" viewBox="0 0 155 171" fill="none" xmlns="http://www.w3.org/2000/svg">
<path d="M46.2071 42.2752C59.6378 19.0126 89.4874 11.0144 112.75 24.4451C136.013 37.8758 144.011 67.7254 130.58 90.988C118.826 111.347 94.4909 120.017 73.0052 112.855L65.6698 125.561L80.301 134.008L70.5181 150.952L55.8869 142.505L50.7241 151.447L33.7797 141.664L38.9425 132.722L24.3113 124.275L34.0941 107.33L48.7253 115.778L56.0608 103.072C39.1156 88.0462 34.4569 62.6361 46.2109 42.2775L46.2071 42.2752ZM113.636 81.2052C121.671 67.2875 116.885 49.4249 102.967 41.3895C89.0495 33.3542 71.1869 38.1404 63.1515 52.0581C55.1161 65.9758 59.9024 83.8384 73.8201 91.8737C87.7378 99.9091 105.6 95.1228 113.636 81.2052Z" fill="#542EA3"/>
<path d="M76.5997 72.7071L78.531 72.3388C80.5926 71.9485 82.6475 73.0582 83.4437 75.0012L83.4921 75.1212L83.6202 75.1031C85.6988 74.825 87.6895 76.0459 88.3823 78.0264L89.029 79.8831C89.4928 81.2148 90.2622 82.416 91.2814 83.3881C89.5552 83.2507 87.8179 83.4958 86.196 84.099L85.8713 84.2184C84.3876 84.7683 82.7461 84.7055 81.3112 84.0459C79.7491 83.323 78.2568 82.4614 76.8497 81.47C75.5549 80.5588 74.6798 79.1687 74.4203 77.6071L74.3614 77.2662C74.0728 75.56 73.4163 73.933 72.4343 72.5067C73.788 72.8995 75.2129 72.9652 76.5959 72.7049L76.5997 72.7071Z" fill="#542EA3"/>
<path d="M51.4958 104.14C53.4736 100.714 57.8568 99.5365 61.2863 101.517C63.4844 102.786 64.748 105.044 64.8583 107.405C66.956 106.314 69.5456 106.285 71.7437 107.554C75.1695 109.532 76.3472 113.915 74.3671 117.345C73.9773 118.02 73.4917 118.604 72.9401 119.099L72.9439 119.101L65.6758 125.559L48.7314 115.776L50.7103 106.182C50.7103 106.182 50.7182 106.151 50.7193 106.131L50.7272 106.1C50.8846 105.429 51.1386 104.767 51.5018 104.138L51.4958 104.14Z" fill="#EF7979"/>
<path d="M66.4944 52.7708C73.8775 41.0903 89.2822 37.2123 101.355 44.1823C103.959 45.6862 106.198 47.5768 108.052 49.7422C108.052 49.7422 89.9971 67.5574 66.4982 52.773L66.4944 52.7708Z" fill="#EF7979"/>
</svg>
