<svg width="19" height="19" viewBox="0 0 19 19" fill="none" xmlns="http://www.w3.org/2000/svg">
<g id="Google logo">
<g clip-path="url(#clip0_107_154)">
<path id="Vector" d="M18.6739 9.71046C18.6739 8.93159 18.612 8.36322 18.4782 7.7738H9.7724V11.2892H14.8825C14.7795 12.1629 14.2232 13.4786 12.9868 14.3626L12.9695 14.4803L15.7221 16.6588L15.9128 16.6783C17.6642 15.0258 18.6739 12.5944 18.6739 9.71046Z" fill="#4285F4"/>
<path id="Vector_2" d="M9.77241 18.9729C12.2759 18.9729 14.3776 18.1308 15.9128 16.6783L12.9868 14.3627C12.2038 14.9205 11.1529 15.31 9.77241 15.31C7.32039 15.31 5.23927 13.6575 4.49741 11.3735L4.38867 11.383L1.52647 13.6459L1.48904 13.7522C3.01382 16.8467 6.14584 18.9729 9.77241 18.9729Z" fill="#34A853"/>
<path id="Vector_3" d="M4.4974 11.3736C4.30165 10.7842 4.18836 10.1526 4.18836 9.50004C4.18836 8.84742 4.30165 8.21592 4.4871 7.62651L4.48191 7.50098L1.58385 5.20166L1.48903 5.24774C0.860597 6.53185 0.5 7.97386 0.5 9.50004C0.5 11.0262 0.860597 12.4682 1.48903 13.7523L4.4974 11.3736Z" fill="#FBBC05"/>
<path id="Vector_4" d="M9.77242 3.68991C11.5135 3.68991 12.688 4.45826 13.3577 5.10036L15.9746 2.49004C14.3674 0.963864 12.2759 0.0270996 9.77242 0.0270996C6.14584 0.0270996 3.01382 2.15321 1.48904 5.24766L4.48711 7.62643C5.23927 5.34242 7.3204 3.68991 9.77242 3.68991Z" fill="#EB4335"/>
</g>
</g>
<defs>
<clipPath id="clip0_107_154">
<rect x="0.5" width="18.1739" height="19" rx="9.08696" fill="white"/>
</clipPath>
</defs>
</svg>
