<svg width="25" height="25" viewBox="0 0 25 25" fill="none" xmlns="http://www.w3.org/2000/svg">
<path d="M0.901367 12.1333V22.1333L2.90137 24.1333H21.4014L23.4014 23.1333V12.1333L12.4014 1.1333L0.901367 12.1333Z" fill="white"/>
<path d="M1.25851 13.2914H2.11565H1.25851ZM1.25851 22.1449H0.401367H1.25851ZM21.8299 23.8592V23.0021V23.8592ZM2.9728 23.8592V24.7163V23.8592ZM23.5442 13.2915H22.6871H23.5442ZM23.5442 22.1449H24.4014H23.5442ZM22.6371 10.9682L22.0068 11.5491L22.6371 10.9682ZM14.9228 2.59578L14.2925 3.17659L14.9228 2.59578ZM9.87991 2.59577L10.5103 3.17659L9.87991 2.59577ZM2.16564 10.9682L1.53528 10.3874L2.16564 10.9682ZM8.9728 15.2878H9.82994H8.9728ZM8.9728 23.0021H8.11565H8.9728ZM14.9728 23.8592V23.0021V23.8592ZM9.82994 23.8592V24.7163V23.8592ZM15.8299 15.2878H16.6871H15.8299ZM15.8299 23.0021H14.9728H15.8299ZM14.9728 14.4306V15.2878V14.4306ZM9.82994 14.4306V15.2878V14.4306ZM0.401367 13.2914V22.1449H2.11565V13.2914H0.401367ZM21.8299 23.0021H2.9728V24.7163H21.8299V23.0021ZM22.6871 13.2915V22.1449H24.4014V13.2915H22.6871ZM23.2675 10.3874L15.5532 2.01497L14.2925 3.17659L22.0068 11.5491L23.2675 10.3874ZM9.24957 2.01496L1.53528 10.3874L2.796 11.549L10.5103 3.17659L9.24957 2.01496ZM15.5532 2.01497C13.8558 0.172749 10.947 0.172741 9.24957 2.01496L10.5103 3.17659C11.5287 2.07125 13.274 2.07125 14.2925 3.17659L15.5532 2.01497ZM24.4014 13.2915C24.4014 12.2154 23.9966 11.1788 23.2675 10.3874L22.0068 11.5491C22.4443 12.0239 22.6871 12.6459 22.6871 13.2915H24.4014ZM2.11565 13.2914C2.11565 12.6458 2.35852 12.0238 2.796 11.549L1.53528 10.3874C0.806144 11.1787 0.401367 12.2154 0.401367 13.2914H2.11565ZM0.401367 22.1449C0.401367 23.5651 1.55263 24.7163 2.9728 24.7163V23.0021C2.4994 23.0021 2.11565 22.6183 2.11565 22.1449H0.401367ZM21.8299 24.7163C23.2501 24.7163 24.4014 23.5651 24.4014 22.1449H22.6871C22.6871 22.6183 22.3033 23.0021 21.8299 23.0021V24.7163ZM8.11565 15.2878V23.0021H9.82994V15.2878H8.11565ZM14.9728 23.0021H9.82994V24.7163H14.9728V23.0021ZM14.9728 15.2878V23.0021H16.6871V15.2878H14.9728ZM14.9728 13.5735H9.82994V15.2878H14.9728V13.5735ZM16.6871 15.2878C16.6871 14.3411 15.9196 13.5735 14.9728 13.5735V15.2878H16.6871ZM9.82994 15.2878V13.5735C8.88314 13.5735 8.11565 14.3411 8.11565 15.2878H9.82994ZM8.11565 23.0021C8.11565 23.9489 8.88314 24.7163 9.82994 24.7163V23.0021H8.11565ZM14.9728 24.7163C15.9196 24.7163 16.6871 23.9489 16.6871 23.0021H14.9728V24.7163Z" fill="#9491AE"/>
</svg>
