<svg width="47" height="21" viewBox="0 0 47 21" fill="none" xmlns="http://www.w3.org/2000/svg">
<path fill-rule="evenodd" clip-rule="evenodd" d="M22.3737 9.37383C22.3737 9.37383 25.4869 6.25858 28.6 3.14758C32.6566 -0.911172 39.2377 -0.911172 43.2944 3.14758L43.3007 3.15183C47.3574 7.21058 47.3574 13.7896 43.3007 17.8483L43.2944 17.8526C39.2377 21.9113 32.6566 21.9113 28.6 17.8526C27.9306 17.1832 27.2612 16.516 26.6237 15.8763C26.0011 15.2558 26.0011 14.2443 26.6237 13.6238C27.2442 13.0012 28.2557 13.0012 28.8762 13.6238C29.5159 14.2613 30.1831 14.9307 30.8525 15.6001C33.666 18.4136 38.2284 18.4136 41.0419 15.6001L41.0461 15.5937C43.8596 12.7802 43.8596 8.21995 41.0461 5.40645L41.0419 5.40008C38.2284 2.58658 33.666 2.58658 30.8525 5.40008C27.7415 8.5132 24.6262 11.6263 24.6262 11.6263C24.0057 12.249 22.9942 12.249 22.3737 11.6263C21.7511 11.0058 21.7511 9.99433 22.3737 9.37383Z" fill="black"/>
<path fill-rule="evenodd" clip-rule="evenodd" d="M18.1237 7.37633C17.4841 6.73883 16.8169 6.06945 16.1475 5.40008C13.334 2.58658 8.77162 2.58658 5.95812 5.40008C5.95812 5.4022 5.95599 5.40433 5.95387 5.40645C3.14037 8.21995 3.14037 12.7802 5.95387 15.5937C5.95599 15.5958 5.95812 15.598 5.95812 15.6001C8.77162 18.4136 13.334 18.4136 16.1475 15.6001C19.2585 12.487 22.3737 9.37383 22.3737 9.37383C22.9942 8.7512 24.0057 8.7512 24.6262 9.37383C25.2489 9.99433 25.2489 11.0058 24.6262 11.6263C24.6262 11.6263 21.5131 14.7416 18.4 17.8526C14.3434 21.9113 7.76224 21.9113 3.70562 17.8526C3.70349 17.8505 3.70137 17.8505 3.69924 17.8483C-0.357383 13.7896 -0.357383 7.21058 3.69924 3.15183C3.70137 3.1497 3.70349 3.1497 3.70562 3.14758C7.76224 -0.911172 14.3434 -0.911172 18.4 3.14758C19.0694 3.81695 19.7387 4.4842 20.3762 5.12383C20.9989 5.74433 20.9989 6.75583 20.3762 7.37633C19.7557 7.99895 18.7442 7.99895 18.1237 7.37633Z" fill="black"/>
</svg>
