<svg width="143" height="165" viewBox="0 0 143 165" fill="none" xmlns="http://www.w3.org/2000/svg">
<g clip-path="url(#clip0_1_2868)">
<path d="M40.6568 52.262C52.3079 32.0818 78.0359 25.0473 98.0117 36.5804C117.987 48.1134 124.76 73.9118 113.108 94.092C102.912 111.753 81.9287 119.348 63.4588 113.233L57.0377 124.354L67.7529 123.224L69.3638 140.061L36.25 143.555L22.7185 113.131L38.1055 106.107L42.4841 115.952L48.9053 104.83C34.3742 91.8926 30.4602 69.923 40.6568 52.262ZM98.5582 85.6913C105.529 73.6178 101.476 58.1796 89.5251 51.2796C77.5739 44.3795 62.1777 48.5891 55.2071 60.6626C48.2364 72.7361 52.289 88.1743 64.2402 95.0744C76.1914 101.974 91.5876 97.7649 98.5582 85.6913Z" fill="#542EA3"/>
<path d="M82.1559 24.7504C83.0738 24.4995 84.0127 25.0415 84.251 25.96C84.5915 27.257 85.3892 28.3477 86.5048 29.0628L88.5588 25.5053C92.0422 19.4719 99.707 17.379 105.676 20.8252L107.821 22.0633C113.793 25.5114 115.808 33.1973 112.326 39.2274L110.272 42.7849C111.451 43.3901 112.793 43.539 114.086 43.1854C115.004 42.9344 115.943 43.4764 116.181 44.395C116.423 45.3154 115.875 46.2639 114.959 46.5115C112.696 47.1304 110.336 46.8284 108.313 45.6606L84.9906 32.1953C82.968 31.0275 81.5264 29.1348 80.9306 26.8651C80.689 25.9446 81.2366 24.9962 82.1526 24.7485L82.1559 24.7504Z" fill="#EF7979"/>
<path d="M50.8624 100.329L55.1546 106.406C55.7714 106.19 56.4744 106.227 57.0806 106.577L57.858 107.026C58.4674 107.378 58.8501 107.963 58.9712 108.605L66.3798 109.284C67.5822 109.392 68.2572 110.718 67.6482 111.773L63.1023 119.647C62.4932 120.702 61.0073 120.78 60.3122 119.793L56.0107 113.703C55.3996 113.909 54.709 113.865 54.1094 113.519L53.332 113.07C52.7325 112.724 52.3492 112.148 52.2224 111.515L44.7967 110.836C43.5944 110.727 42.9193 109.401 43.5284 108.346L48.0743 100.472C48.6834 99.4175 50.1692 99.3391 50.8643 100.326L50.8624 100.329Z" fill="#EF7979"/>
<path d="M64.8781 71.1314L69.3895 69.8979C72.4458 69.0623 75.5882 70.8011 76.5021 73.8358C79.582 73.1114 82.6643 74.962 83.4687 78.0266L84.6562 82.5503C85.4044 85.4005 88.3145 87.0851 91.1603 86.3099C86.7247 89.7702 80.3309 88.7411 77.2603 84.0708L73.7104 78.6712L67.2593 78.2967C61.6794 77.9726 57.5912 72.95 58.3702 67.3785C59.1217 70.2307 62.0357 71.9086 64.8781 71.1314Z" fill="#542EA3"/>
</g>
<defs>
<clipPath id="clip0_1_2868">
<rect width="83.66" height="141" fill="white" transform="matrix(-0.866025 -0.5 -0.5 0.866025 142.976 42.3601)"/>
</clipPath>
</defs>
</svg>
