<svg width="25" height="24" viewBox="0 0 25 24" fill="none" xmlns="http://www.w3.org/2000/svg">
<path d="M12.1115 2C17.4198 2 21.7231 6.20819 21.7231 11.3993C21.7231 13.849 20.7647 16.0799 19.1946 17.7529L22.2825 20.7636C22.572 21.0459 22.5726 21.5043 22.2839 21.7873C22.0214 22.0446 21.6102 22.0685 21.3202 21.8586L21.237 21.7886L18.1127 18.7417C16.4681 20.0288 14.3818 20.7985 12.1115 20.7985C6.80323 20.7985 2.5 16.5903 2.5 11.3993C2.5 6.20819 6.80323 2 12.1115 2ZM12.1115 3.44774C7.62086 3.44774 3.98044 7.00776 3.98044 11.3993C3.98044 15.7908 7.62086 19.3508 12.1115 19.3508C16.6022 19.3508 20.2426 15.7908 20.2426 11.3993C20.2426 7.00776 16.6022 3.44774 12.1115 3.44774Z" fill="#271E4A"/>
</svg>
