<svg width="25" height="17" viewBox="0 0 25 17" fill="none" xmlns="http://www.w3.org/2000/svg">
<path d="M1.76558 16.3706H16.772C17.5223 16.3706 18.1362 15.7567 18.1362 15.0064C18.1362 14.2561 17.5223 13.6422 16.772 13.6422H1.76558C1.01527 13.6422 0.401367 14.2561 0.401367 15.0064C0.401367 15.7567 1.01527 16.3706 1.76558 16.3706ZM1.76558 9.54952H12.6793C13.4296 9.54952 14.0435 8.93563 14.0435 8.18531C14.0435 7.43499 13.4296 6.82109 12.6793 6.82109H1.76558C1.01527 6.82109 0.401367 7.43499 0.401367 8.18531C0.401367 8.93563 1.01527 9.54952 1.76558 9.54952ZM0.401367 1.36422C0.401367 2.11454 1.01527 2.72844 1.76558 2.72844H16.772C17.5223 2.72844 18.1362 2.11454 18.1362 1.36422C18.1362 0.613898 17.5223 0 16.772 0H1.76558C1.01527 0 0.401367 0.613898 0.401367 1.36422ZM24.0023 12.1143L20.0734 8.18531L24.0023 4.25636C24.5344 3.72431 24.5344 2.86486 24.0023 2.33281C23.4703 1.80077 22.6108 1.80077 22.0788 2.33281L17.1812 7.23035C16.6492 7.7624 16.6492 8.62186 17.1812 9.1539L22.0788 14.0514C22.6108 14.5835 23.4703 14.5835 24.0023 14.0514C24.5207 13.5194 24.5344 12.6463 24.0023 12.1143Z" fill="#9491AE"/>
</svg>
